<svg width="25" height="33" viewBox="0 0 25 33" fill="none" xmlns="http://www.w3.org/2000/svg">
<path fill-rule="evenodd" clip-rule="evenodd" d="M11.5756 0.04125C11.5756 0.0657113 11.4282 0.0825 11.2138 0.0825C10.9995 0.0825 10.8521 0.0992888 10.8521 0.12375C10.8521 0.147304 10.7315 0.165 10.5707 0.165C10.41 0.165 10.2894 0.182696 10.2894 0.20625C10.2894 0.228938 10.199 0.2475 10.0884 0.2475C9.97789 0.2475 9.88746 0.266062 9.88746 0.28875C9.88746 0.311438 9.81511 0.33 9.72669 0.33C9.63826 0.33 9.56592 0.348563 9.56592 0.37125C9.56592 0.393938 9.49357 0.4125 9.40514 0.4125C9.31672 0.4125 9.24437 0.431063 9.24437 0.45375C9.24437 0.476438 9.19011 0.495 9.12379 0.495C9.05748 0.495 9.00321 0.513563 9.00321 0.53625C9.00321 0.558938 8.93087 0.5775 8.84244 0.5775C8.75402 0.5775 8.68167 0.596063 8.68167 0.61875C8.68167 0.641438 8.62741 0.66 8.56109 0.66C8.49477 0.66 8.44051 0.678563 8.44051 0.70125C8.44051 0.723938 8.38625 0.7425 8.31994 0.7425C8.25362 0.7425 8.19936 0.761063 8.19936 0.78375C8.19936 0.806438 8.16318 0.825 8.11897 0.825C8.07476 0.825 8.03858 0.843563 8.03858 0.86625C8.03858 0.888938 7.98432 0.9075 7.91801 0.9075C7.85169 0.9075 7.79743 0.926063 7.79743 0.94875C7.79743 0.971438 7.76125 0.99 7.71704 0.99C7.67283 0.99 7.63666 1.00856 7.63666 1.03125C7.63666 1.05394 7.60048 1.0725 7.55627 1.0725C7.51206 1.0725 7.47588 1.09106 7.47588 1.11375C7.47588 1.13644 7.43971 1.155 7.3955 1.155C7.35129 1.155 7.31511 1.17356 7.31511 1.19625C7.31511 1.21894 7.26085 1.2375 7.19453 1.2375C7.12822 1.2375 7.07395 1.25606 7.07395 1.27875C7.07395 1.30144 7.04176 1.32 7.00245 1.32C6.9631 1.32 6.90486 1.35713 6.87299 1.4025C6.84112 1.44788 6.78288 1.485 6.74353 1.485C6.70422 1.485 6.67203 1.50356 6.67203 1.52625C6.67203 1.54894 6.63585 1.5675 6.59164 1.5675C6.54743 1.5675 6.51125 1.58606 6.51125 1.60875C6.51125 1.63144 6.47508 1.65 6.43087 1.65C6.38666 1.65 6.35048 1.66856 6.35048 1.69125C6.35048 1.71394 6.31829 1.7325 6.27898 1.7325C6.23963 1.7325 6.18139 1.76963 6.14952 1.815C6.11764 1.86038 6.0594 1.8975 6.02006 1.8975C5.98075 1.8975 5.94855 1.91606 5.94855 1.93875C5.94855 1.96144 5.91636 1.98 5.87705 1.98C5.8377 1.98 5.77946 2.01713 5.74759 2.0625C5.71572 2.10788 5.66145 2.145 5.62701 2.145C5.59256 2.145 5.5383 2.18213 5.50643 2.2275C5.47456 2.27288 5.42355 2.31 5.39309 2.31C5.36266 2.31 5.28702 2.36569 5.22508 2.43375C5.16314 2.50181 5.0908 2.5575 5.06431 2.5575C5.03782 2.5575 4.96547 2.61319 4.90354 2.68125C4.8416 2.74931 4.77002 2.805 4.74449 2.805C4.71901 2.805 4.5916 2.91638 4.46141 3.0525C4.33123 3.18863 4.20543 3.3 4.18187 3.3C4.12568 3.3 3.21543 4.23456 3.21543 4.29223C3.21543 4.31665 3.125 4.42699 3.01447 4.5375C2.90394 4.64801 2.8135 4.75963 2.8135 4.78554C2.8135 4.81148 2.74116 4.90405 2.65273 4.99125C2.56431 5.07845 2.49196 5.17164 2.49196 5.19833C2.49196 5.22506 2.4377 5.29893 2.37138 5.3625C2.30506 5.42607 2.2508 5.5037 2.2508 5.53492C2.2508 5.56619 2.21463 5.61854 2.17042 5.65125C2.12621 5.68396 2.09003 5.73965 2.09003 5.775C2.09003 5.81035 2.05386 5.86604 2.00965 5.89875C1.96543 5.93146 1.92926 5.99123 1.92926 6.03162C1.92926 6.07196 1.91117 6.105 1.88907 6.105C1.86696 6.105 1.84887 6.13804 1.84887 6.17838C1.84887 6.21877 1.8127 6.27854 1.76849 6.31125C1.72428 6.34396 1.6881 6.40373 1.6881 6.44412C1.6881 6.48446 1.67002 6.5175 1.64791 6.5175C1.6258 6.5175 1.60772 6.55463 1.60772 6.6C1.60772 6.64538 1.58963 6.6825 1.56752 6.6825C1.54542 6.6825 1.52733 6.71963 1.52733 6.765C1.52733 6.81038 1.50924 6.8475 1.48714 6.8475C1.46503 6.8475 1.44695 6.88463 1.44695 6.93C1.44695 6.97538 1.42886 7.0125 1.40675 7.0125C1.38465 7.0125 1.36656 7.04963 1.36656 7.095C1.36656 7.14038 1.34847 7.1775 1.32637 7.1775C1.30426 7.1775 1.28617 7.21463 1.28617 7.26C1.28617 7.30538 1.26809 7.3425 1.24598 7.3425C1.22387 7.3425 1.20579 7.37963 1.20579 7.425C1.20579 7.47038 1.1877 7.5075 1.16559 7.5075C1.14349 7.5075 1.1254 7.54463 1.1254 7.59C1.1254 7.63538 1.10732 7.6725 1.08521 7.6725C1.0631 7.6725 1.04502 7.70963 1.04502 7.755C1.04502 7.80038 1.02693 7.8375 1.00482 7.8375C0.982717 7.8375 0.96463 7.89319 0.96463 7.96125C0.96463 8.02931 0.946543 8.085 0.924437 8.085C0.902331 8.085 0.884244 8.12213 0.884244 8.1675C0.884244 8.21288 0.866158 8.25 0.844051 8.25C0.821945 8.25 0.803859 8.30569 0.803859 8.37375C0.803859 8.44181 0.785772 8.4975 0.763666 8.4975C0.741559 8.4975 0.723473 8.55319 0.723473 8.62125C0.723473 8.68931 0.705386 8.745 0.68328 8.745C0.661174 8.745 0.643087 8.80069 0.643087 8.86875C0.643087 8.93681 0.625 8.9925 0.602894 8.9925C0.580788 8.9925 0.562701 9.04819 0.562701 9.11625C0.562701 9.18431 0.544614 9.24 0.522508 9.24C0.500402 9.24 0.482315 9.31425 0.482315 9.405C0.482315 9.49575 0.464228 9.57 0.442122 9.57C0.420016 9.57 0.401929 9.64425 0.401929 9.735C0.401929 9.82575 0.383842 9.9 0.361736 9.9C0.33963 9.9 0.321543 9.97425 0.321543 10.065C0.321543 10.1558 0.303457 10.23 0.28135 10.23C0.259003 10.23 0.241158 10.34 0.241158 10.4775C0.241158 10.615 0.223312 10.725 0.200965 10.725C0.178014 10.725 0.160772 10.8488 0.160772 11.0138C0.160772 11.1788 0.143529 11.3025 0.120579 11.3025C0.0956994 11.3025 0.0803858 11.5225 0.0803858 11.88C0.0803858 12.2375 0.0650723 12.4575 0.0401929 12.4575C0.0172428 12.4575 0 12.5813 0 12.7463C0 12.9113 0.0172428 13.035 0.0401929 13.035C0.0649116 13.035 0.0803858 13.2413 0.0803858 13.5713C0.0803858 13.9013 0.0958601 14.1075 0.120579 14.1075C0.144011 14.1075 0.160772 14.245 0.160772 14.4375C0.160772 14.63 0.177532 14.7675 0.200965 14.7675C0.223071 14.7675 0.241158 14.8603 0.241158 14.9738C0.241158 15.0872 0.259244 15.18 0.28135 15.18C0.303457 15.18 0.321543 15.2728 0.321543 15.3863C0.321543 15.4997 0.33963 15.5925 0.361736 15.5925C0.383842 15.5925 0.401929 15.6668 0.401929 15.7575C0.401929 15.8483 0.420016 15.9225 0.442122 15.9225C0.464228 15.9225 0.482315 15.9968 0.482315 16.0875C0.482315 16.1783 0.500402 16.2525 0.522508 16.2525C0.544614 16.2525 0.562701 16.3082 0.562701 16.3763C0.562701 16.4443 0.580788 16.5 0.602894 16.5C0.625 16.5 0.643087 16.5557 0.643087 16.6238C0.643087 16.6918 0.661174 16.7475 0.68328 16.7475C0.705386 16.7475 0.723473 16.8032 0.723473 16.8713C0.723473 16.9393 0.741559 16.995 0.763666 16.995C0.785772 16.995 0.803859 17.0507 0.803859 17.1188C0.803859 17.1868 0.821945 17.2425 0.844051 17.2425C0.866158 17.2425 0.884244 17.2796 0.884244 17.325C0.884244 17.3704 0.902331 17.4075 0.924437 17.4075C0.946543 17.4075 0.96463 17.4632 0.96463 17.5312C0.96463 17.5993 0.982717 17.655 1.00482 17.655C1.02693 17.655 1.04502 17.6921 1.04502 17.7375C1.04502 17.7829 1.0631 17.82 1.08521 17.82C1.10732 17.82 1.1254 17.8571 1.1254 17.9025C1.1254 17.9479 1.14349 17.985 1.16559 17.985C1.1877 17.985 1.20579 18.0407 1.20579 18.1088C1.20579 18.1768 1.22387 18.2325 1.24598 18.2325C1.26809 18.2325 1.28617 18.2696 1.28617 18.315C1.28617 18.3604 1.30426 18.3975 1.32637 18.3975C1.34847 18.3975 1.36656 18.4346 1.36656 18.48C1.36656 18.5254 1.38465 18.5625 1.40675 18.5625C1.42886 18.5625 1.44695 18.5955 1.44695 18.6359C1.44695 18.6763 1.48312 18.736 1.52733 18.7688C1.57154 18.8015 1.60772 18.8612 1.60772 18.9016C1.60772 18.942 1.6258 18.975 1.64791 18.975C1.67002 18.975 1.6881 19.0121 1.6881 19.0575C1.6881 19.1029 1.70619 19.14 1.7283 19.14C1.7504 19.14 1.76849 19.173 1.76849 19.2134C1.76849 19.2538 1.80466 19.3135 1.84887 19.3463C1.89309 19.379 1.92926 19.4387 1.92926 19.4791C1.92926 19.5195 1.94735 19.5525 1.96945 19.5525C1.99156 19.5525 2.00965 19.5855 2.00965 19.6259C2.00965 19.6663 2.04582 19.726 2.09003 19.7588C2.13424 19.7915 2.17042 19.8471 2.17042 19.8825C2.17042 19.9179 2.20659 19.9735 2.2508 20.0063C2.29502 20.039 2.33119 20.0913 2.33119 20.1226C2.33119 20.1538 2.38545 20.2314 2.45177 20.295C2.51809 20.3586 2.57235 20.4328 2.57235 20.46C2.57235 20.4872 2.62661 20.5614 2.69293 20.625C2.75924 20.6886 2.8135 20.7628 2.8135 20.79C2.8135 20.8172 2.86777 20.8914 2.93408 20.955C3.0004 21.0186 3.05466 21.0928 3.05466 21.12C3.05466 21.1472 3.10892 21.2214 3.17524 21.285C3.24156 21.3486 3.29582 21.4228 3.29582 21.45C3.29582 21.4772 3.35008 21.5514 3.4164 21.615C3.48272 21.6786 3.53698 21.7528 3.53698 21.78C3.53698 21.8072 3.59124 21.8814 3.65756 21.945C3.72387 22.0086 3.77813 22.0828 3.77813 22.11C3.77813 22.1372 3.8324 22.2114 3.89871 22.275C3.96503 22.3386 4.01929 22.4128 4.01929 22.44C4.01929 22.4672 4.07355 22.5414 4.13987 22.605C4.20619 22.6686 4.26045 22.7428 4.26045 22.77C4.26045 22.7972 4.31471 22.8714 4.38103 22.935C4.44735 22.9986 4.50161 23.0728 4.50161 23.1C4.50161 23.1272 4.55587 23.2014 4.62219 23.265C4.6885 23.3286 4.74276 23.4028 4.74276 23.43C4.74276 23.4572 4.79703 23.5314 4.86334 23.595C4.92966 23.6586 4.98392 23.7328 4.98392 23.76C4.98392 23.7872 5.03818 23.8614 5.1045 23.925C5.17082 23.9886 5.22508 24.0624 5.22508 24.0892C5.22508 24.1159 5.29743 24.209 5.38585 24.2963C5.47428 24.3835 5.54662 24.4766 5.54662 24.5033C5.54662 24.5301 5.60088 24.6039 5.6672 24.6675C5.73352 24.7311 5.78778 24.8053 5.78778 24.8325C5.78778 24.8597 5.84204 24.9339 5.90836 24.9975C5.97468 25.0611 6.02894 25.1353 6.02894 25.1625C6.02894 25.1897 6.0832 25.2639 6.14952 25.3275C6.21584 25.3911 6.2701 25.4653 6.2701 25.4925C6.2701 25.5197 6.32436 25.5939 6.39068 25.6575C6.45699 25.7211 6.51125 25.7953 6.51125 25.8225C6.51125 25.8497 6.56551 25.9239 6.63183 25.9875C6.69815 26.0511 6.75241 26.1253 6.75241 26.1525C6.75241 26.1797 6.80667 26.2539 6.87299 26.3175C6.93931 26.3811 6.99357 26.4553 6.99357 26.4825C6.99357 26.5097 7.04783 26.5839 7.11415 26.6475C7.18047 26.7111 7.23473 26.7853 7.23473 26.8125C7.23473 26.8397 7.28899 26.9139 7.35531 26.9775C7.42162 27.0411 7.47588 27.1153 7.47588 27.1425C7.47588 27.1697 7.53014 27.2439 7.59646 27.3075C7.66278 27.3711 7.71704 27.4453 7.71704 27.4725C7.71704 27.4997 7.7713 27.5739 7.83762 27.6375C7.90394 27.7011 7.9582 27.7753 7.9582 27.8025C7.9582 27.8297 8.01246 27.9039 8.07878 27.9675C8.1451 28.0311 8.19936 28.1053 8.19936 28.1325C8.19936 28.1597 8.25362 28.2339 8.31994 28.2975C8.38625 28.3611 8.44051 28.4353 8.44051 28.4625C8.44051 28.4897 8.49477 28.5639 8.56109 28.6275C8.62741 28.6911 8.68167 28.7653 8.68167 28.7925C8.68167 28.8197 8.73593 28.8939 8.80225 28.9575C8.86857 29.0211 8.92283 29.0953 8.92283 29.1225C8.92283 29.1497 8.97709 29.2239 9.04341 29.2875C9.10973 29.3511 9.16399 29.4253 9.16399 29.4525C9.16399 29.4797 9.21825 29.5539 9.28457 29.6175C9.35088 29.6811 9.40514 29.7553 9.40514 29.7825C9.40514 29.8097 9.4594 29.8839 9.52572 29.9475C9.59204 30.0111 9.6463 30.0853 9.6463 30.1125C9.6463 30.1397 9.70056 30.2139 9.76688 30.2775C9.8332 30.3411 9.88746 30.4153 9.88746 30.4425C9.88746 30.4697 9.94172 30.5439 10.008 30.6075C10.0744 30.6711 10.1286 30.7453 10.1286 30.7725C10.1286 30.7997 10.1829 30.8739 10.2492 30.9375C10.3155 31.0011 10.3698 31.0753 10.3698 31.1025C10.3698 31.1297 10.424 31.2039 10.4904 31.2675C10.5567 31.3311 10.6109 31.4049 10.6109 31.4317C10.6109 31.4584 10.6833 31.5515 10.7717 31.6388C10.8601 31.726 10.9325 31.8191 10.9325 31.8458C10.9325 31.8726 10.9867 31.9464 11.0531 32.01C11.1194 32.0736 11.1736 32.1463 11.1736 32.1717C11.1736 32.2415 11.6858 32.7525 11.7557 32.7525C11.7893 32.7525 11.8167 32.7711 11.8167 32.7938C11.8167 32.8164 11.871 32.835 11.9373 32.835C12.0036 32.835 12.0579 32.8536 12.0579 32.8763C12.0579 32.8989 12.1302 32.9175 12.2186 32.9175C12.3071 32.9175 12.3794 32.9361 12.3794 32.9588C12.3794 32.9814 12.4518 33 12.5402 33C12.6286 33 12.701 32.9814 12.701 32.9588C12.701 32.9361 12.7733 32.9175 12.8617 32.9175C12.9502 32.9175 13.0225 32.8989 13.0225 32.8763C13.0225 32.8536 13.0587 32.835 13.1029 32.835C13.1471 32.835 13.1833 32.8164 13.1833 32.7938C13.1833 32.7711 13.2195 32.7525 13.2637 32.7525C13.3079 32.7525 13.3441 32.7339 13.3441 32.7113C13.3441 32.6886 13.3716 32.67 13.4052 32.67C13.4754 32.67 13.9068 32.2415 13.9068 32.1718C13.9068 32.1464 13.961 32.0736 14.0273 32.01C14.0936 31.9464 14.1479 31.8722 14.1479 31.845C14.1479 31.8178 14.2022 31.7436 14.2685 31.68C14.3348 31.6164 14.3891 31.5422 14.3891 31.515C14.3891 31.4878 14.4433 31.4136 14.5096 31.35C14.576 31.2864 14.6302 31.2122 14.6302 31.185C14.6302 31.1578 14.6845 31.0836 14.7508 31.02C14.8171 30.9564 14.8714 30.8822 14.8714 30.855C14.8714 30.8278 14.9256 30.7536 14.992 30.69C15.0583 30.6264 15.1125 30.5522 15.1125 30.525C15.1125 30.4978 15.1668 30.4236 15.2331 30.36C15.2994 30.2964 15.3537 30.2222 15.3537 30.195C15.3537 30.1678 15.408 30.0936 15.4743 30.03C15.5406 29.9664 15.5949 29.8922 15.5949 29.865C15.5949 29.8378 15.6491 29.7636 15.7154 29.7C15.7818 29.6364 15.836 29.5622 15.836 29.535C15.836 29.5078 15.8903 29.4336 15.9566 29.37C16.0229 29.3064 16.0772 29.2322 16.0772 29.205C16.0772 29.1778 16.1314 29.1036 16.1977 29.04C16.2641 28.9764 16.3183 28.9022 16.3183 28.875C16.3183 28.8478 16.3726 28.7736 16.4389 28.71C16.5052 28.6464 16.5595 28.5722 16.5595 28.545C16.5595 28.5178 16.6137 28.4436 16.6801 28.38C16.7464 28.3164 16.8006 28.2422 16.8006 28.215C16.8006 28.1878 16.8549 28.1136 16.9212 28.05C16.9875 27.9864 17.0418 27.9122 17.0418 27.885C17.0418 27.8578 17.0961 27.7836 17.1624 27.72C17.2287 27.6564 17.283 27.5822 17.283 27.555C17.283 27.5278 17.3372 27.4536 17.4035 27.39C17.4699 27.3264 17.5241 27.2522 17.5241 27.225C17.5241 27.1978 17.5784 27.1236 17.6447 27.06C17.711 26.9964 17.7653 26.9222 17.7653 26.895C17.7653 26.8678 17.8195 26.7936 17.8859 26.73C17.9522 26.6664 18.0064 26.5922 18.0064 26.565C18.0064 26.5378 18.0607 26.4636 18.127 26.4C18.1933 26.3364 18.2476 26.2622 18.2476 26.235C18.2476 26.2078 18.3018 26.1336 18.3682 26.07C18.4345 26.0064 18.4887 25.9322 18.4887 25.905C18.4887 25.8778 18.543 25.8036 18.6093 25.74C18.6756 25.6764 18.7299 25.6022 18.7299 25.575C18.7299 25.5478 18.7842 25.4736 18.8505 25.41C18.9168 25.3464 18.9711 25.2722 18.9711 25.245C18.9711 25.2178 19.0253 25.1436 19.0916 25.08C19.158 25.0164 19.2122 24.9422 19.2122 24.915C19.2122 24.8878 19.2665 24.8136 19.3328 24.75C19.3991 24.6864 19.4534 24.6122 19.4534 24.585C19.4534 24.5578 19.5076 24.4836 19.574 24.42C19.6403 24.3564 19.6945 24.2822 19.6945 24.255C19.6945 24.2278 19.7488 24.1536 19.8151 24.09C19.8814 24.0264 19.9357 23.9522 19.9357 23.925C19.9357 23.8978 19.99 23.8236 20.0563 23.76C20.1226 23.6964 20.1768 23.6222 20.1768 23.595C20.1768 23.5678 20.2311 23.4936 20.2974 23.43C20.3637 23.3664 20.418 23.2922 20.418 23.265C20.418 23.2378 20.4723 23.1636 20.5386 23.1C20.6049 23.0364 20.6592 22.9622 20.6592 22.935C20.6592 22.9078 20.7134 22.8336 20.7797 22.77C20.8461 22.7064 20.9003 22.6322 20.9003 22.605C20.9003 22.5778 20.9546 22.5036 21.0209 22.44C21.0872 22.3764 21.1415 22.3022 21.1415 22.275C21.1415 22.2478 21.1957 22.1736 21.2621 22.11C21.3284 22.0464 21.3826 21.9722 21.3826 21.945C21.3826 21.9178 21.4369 21.8436 21.5032 21.78C21.5695 21.7164 21.6238 21.6422 21.6238 21.615C21.6238 21.5878 21.6781 21.5136 21.7444 21.45C21.8107 21.3864 21.865 21.3122 21.865 21.285C21.865 21.2578 21.9192 21.1836 21.9855 21.12C22.0518 21.0564 22.1061 20.9822 22.1061 20.955C22.1061 20.9278 22.1604 20.8536 22.2267 20.79C22.293 20.7264 22.3473 20.6526 22.3473 20.6258C22.3473 20.5991 22.4196 20.506 22.508 20.4188C22.5965 20.3315 22.6688 20.235 22.6688 20.2042C22.6688 20.1734 22.705 20.1215 22.7492 20.0888C22.7934 20.056 22.8296 20.0004 22.8296 19.965C22.8296 19.9296 22.8658 19.874 22.91 19.8413C22.9542 19.8085 22.9904 19.7529 22.9904 19.7175C22.9904 19.6821 23.0265 19.6265 23.0707 19.5938C23.115 19.561 23.1511 19.5054 23.1511 19.47C23.1511 19.4347 23.1873 19.379 23.2315 19.3463C23.2757 19.3135 23.3119 19.2538 23.3119 19.2134C23.3119 19.173 23.33 19.14 23.3521 19.14C23.3742 19.14 23.3923 19.1029 23.3923 19.0575C23.3923 19.0121 23.4104 18.975 23.4325 18.975C23.4546 18.975 23.4727 18.9379 23.4727 18.8925C23.4727 18.8471 23.4908 18.81 23.5129 18.81C23.535 18.81 23.5531 18.7729 23.5531 18.7275C23.5531 18.6821 23.5711 18.645 23.5932 18.645C23.6154 18.645 23.6334 18.6079 23.6334 18.5625C23.6334 18.5171 23.6515 18.48 23.6736 18.48C23.6957 18.48 23.7138 18.4429 23.7138 18.3975C23.7138 18.3521 23.7319 18.315 23.754 18.315C23.7761 18.315 23.7942 18.2779 23.7942 18.2325C23.7942 18.1871 23.8123 18.15 23.8344 18.15C23.8565 18.15 23.8746 18.1129 23.8746 18.0675C23.8746 18.0221 23.8927 17.985 23.9148 17.985C23.9369 17.985 23.955 17.9479 23.955 17.9025C23.955 17.8571 23.9731 17.82 23.9952 17.82C24.0173 17.82 24.0354 17.7643 24.0354 17.6963C24.0354 17.6282 24.0535 17.5725 24.0756 17.5725C24.0977 17.5725 24.1158 17.5354 24.1158 17.49C24.1158 17.4446 24.1338 17.4075 24.1559 17.4075C24.1781 17.4075 24.1961 17.3518 24.1961 17.2838C24.1961 17.2157 24.2142 17.16 24.2363 17.16C24.2584 17.16 24.2765 17.1229 24.2765 17.0775C24.2765 17.0321 24.2946 16.995 24.3167 16.995C24.3388 16.995 24.3569 16.9393 24.3569 16.8713C24.3569 16.8032 24.375 16.7475 24.3971 16.7475C24.4192 16.7475 24.4373 16.6733 24.4373 16.5825C24.4373 16.4918 24.4554 16.4175 24.4775 16.4175C24.4996 16.4175 24.5177 16.3618 24.5177 16.2938C24.5177 16.2257 24.5358 16.17 24.5579 16.17C24.58 16.17 24.5981 16.0958 24.5981 16.005C24.5981 15.9143 24.6162 15.84 24.6383 15.84C24.6604 15.84 24.6785 15.7658 24.6785 15.675C24.6785 15.5843 24.6965 15.51 24.7186 15.51C24.7408 15.51 24.7588 15.4172 24.7588 15.3038C24.7588 15.1903 24.7769 15.0975 24.799 15.0975C24.8214 15.0975 24.8392 14.9875 24.8392 14.85C24.8392 14.7125 24.8571 14.6025 24.8794 14.6025C24.9029 14.6025 24.9196 14.465 24.9196 14.2725C24.9196 14.08 24.9364 13.9425 24.9598 13.9425C24.9857 13.9425 25 13.5163 25 12.7463C25 11.9762 24.9857 11.55 24.9598 11.55C24.9364 11.55 24.9196 11.4125 24.9196 11.22C24.9196 11.0275 24.9029 10.89 24.8794 10.89C24.8571 10.89 24.8392 10.78 24.8392 10.6425C24.8392 10.505 24.8214 10.395 24.799 10.395C24.7769 10.395 24.7588 10.3022 24.7588 10.1888C24.7588 10.0753 24.7408 9.9825 24.7186 9.9825C24.6965 9.9825 24.6785 9.90825 24.6785 9.8175C24.6785 9.72675 24.6604 9.6525 24.6383 9.6525C24.6162 9.6525 24.5981 9.57825 24.5981 9.4875C24.5981 9.39675 24.58 9.3225 24.5579 9.3225C24.5358 9.3225 24.5177 9.26681 24.5177 9.19875C24.5177 9.13069 24.4996 9.075 24.4775 9.075C24.4554 9.075 24.4373 9.01931 24.4373 8.95125C24.4373 8.88319 24.4192 8.8275 24.3971 8.8275C24.375 8.8275 24.3569 8.77181 24.3569 8.70375C24.3569 8.63569 24.3388 8.58 24.3167 8.58C24.2946 8.58 24.2765 8.52431 24.2765 8.45625C24.2765 8.38819 24.2584 8.3325 24.2363 8.3325C24.2142 8.3325 24.1961 8.27681 24.1961 8.20875C24.1961 8.14069 24.1781 8.085 24.1559 8.085C24.1338 8.085 24.1158 8.04788 24.1158 8.0025C24.1158 7.95713 24.0977 7.92 24.0756 7.92C24.0535 7.92 24.0354 7.86431 24.0354 7.79625C24.0354 7.72819 24.0173 7.6725 23.9952 7.6725C23.9731 7.6725 23.955 7.63538 23.955 7.59C23.955 7.54463 23.9369 7.5075 23.9148 7.5075C23.8927 7.5075 23.8746 7.47038 23.8746 7.425C23.8746 7.37963 23.8565 7.3425 23.8344 7.3425C23.8123 7.3425 23.7942 7.30538 23.7942 7.26C23.7942 7.21463 23.7761 7.1775 23.754 7.1775C23.7319 7.1775 23.7138 7.14038 23.7138 7.095C23.7138 7.04963 23.6957 7.0125 23.6736 7.0125C23.6515 7.0125 23.6334 6.97538 23.6334 6.93C23.6334 6.88463 23.6154 6.8475 23.5932 6.8475C23.5711 6.8475 23.5531 6.81038 23.5531 6.765C23.5531 6.71963 23.535 6.6825 23.5129 6.6825C23.4908 6.6825 23.4727 6.64946 23.4727 6.60912C23.4727 6.56873 23.4365 6.50896 23.3923 6.47625C23.3481 6.44354 23.3119 6.38377 23.3119 6.34338C23.3119 6.30304 23.2938 6.27 23.2717 6.27C23.2496 6.27 23.2315 6.23696 23.2315 6.19662C23.2315 6.15623 23.1953 6.09646 23.1511 6.06375C23.1069 6.03104 23.0707 5.97535 23.0707 5.94C23.0707 5.90465 23.0346 5.84896 22.9904 5.81625C22.9461 5.78354 22.91 5.72785 22.91 5.6925C22.91 5.65715 22.8738 5.60146 22.8296 5.56875C22.7854 5.53604 22.7492 5.48035 22.7492 5.445C22.7492 5.40965 22.713 5.35396 22.6688 5.32125C22.6246 5.28854 22.5884 5.23661 22.5884 5.20579C22.5884 5.17498 22.5161 5.07845 22.4277 4.99125C22.3392 4.90405 22.2669 4.81169 22.2669 4.78595C22.2669 4.76021 22.1584 4.62986 22.0257 4.49625C21.8931 4.36264 21.7846 4.23353 21.7846 4.20932C21.7846 4.15185 20.9545 3.3 20.8986 3.3C20.875 3.3 20.7492 3.18863 20.619 3.0525C20.4888 2.91638 20.3614 2.805 20.3359 2.805C20.3104 2.805 20.2388 2.74931 20.1768 2.68125C20.1149 2.61319 20.0426 2.5575 20.0161 2.5575C19.9896 2.5575 19.9172 2.50181 19.8553 2.43375C19.7934 2.36569 19.7177 2.31 19.6873 2.31C19.6568 2.31 19.6058 2.27288 19.574 2.2275C19.5421 2.18213 19.4878 2.145 19.4534 2.145C19.4189 2.145 19.3647 2.10788 19.3328 2.0625C19.3009 2.01713 19.2427 1.98 19.2033 1.98C19.164 1.98 19.1318 1.96144 19.1318 1.93875C19.1318 1.91606 19.0996 1.8975 19.0603 1.8975C19.021 1.8975 18.9627 1.86038 18.9309 1.815C18.899 1.76963 18.8408 1.7325 18.8014 1.7325C18.7621 1.7325 18.7299 1.71394 18.7299 1.69125C18.7299 1.66856 18.6937 1.65 18.6495 1.65C18.6053 1.65 18.5691 1.63144 18.5691 1.60875C18.5691 1.58606 18.5369 1.5675 18.4976 1.5675C18.4583 1.5675 18.4 1.53038 18.3682 1.485C18.3363 1.43963 18.2781 1.4025 18.2387 1.4025C18.1994 1.4025 18.1672 1.38394 18.1672 1.36125C18.1672 1.33856 18.131 1.32 18.0868 1.32C18.0426 1.32 18.0064 1.30144 18.0064 1.27875C18.0064 1.25606 17.9703 1.2375 17.926 1.2375C17.8818 1.2375 17.8457 1.21894 17.8457 1.19625C17.8457 1.17356 17.7914 1.155 17.7251 1.155C17.6588 1.155 17.6045 1.13644 17.6045 1.11375C17.6045 1.09106 17.5683 1.0725 17.5241 1.0725C17.4799 1.0725 17.4437 1.05394 17.4437 1.03125C17.4437 1.00856 17.4076 0.99 17.3633 0.99C17.3191 0.99 17.283 0.971438 17.283 0.94875C17.283 0.926063 17.2287 0.9075 17.1624 0.9075C17.0961 0.9075 17.0418 0.888938 17.0418 0.86625C17.0418 0.843563 17.0056 0.825 16.9614 0.825C16.9172 0.825 16.881 0.806438 16.881 0.78375C16.881 0.761063 16.8268 0.7425 16.7605 0.7425C16.6941 0.7425 16.6399 0.723938 16.6399 0.70125C16.6399 0.678563 16.5856 0.66 16.5193 0.66C16.453 0.66 16.3987 0.641438 16.3987 0.61875C16.3987 0.596063 16.3264 0.5775 16.2379 0.5775C16.1495 0.5775 16.0772 0.558938 16.0772 0.53625C16.0772 0.513563 16.0229 0.495 15.9566 0.495C15.8903 0.495 15.836 0.476438 15.836 0.45375C15.836 0.431063 15.7637 0.4125 15.6752 0.4125C15.5868 0.4125 15.5145 0.393938 15.5145 0.37125C15.5145 0.348563 15.4421 0.33 15.3537 0.33C15.2653 0.33 15.1929 0.311438 15.1929 0.28875C15.1929 0.266062 15.1025 0.2475 14.992 0.2475C14.8814 0.2475 14.791 0.228938 14.791 0.20625C14.791 0.182696 14.6704 0.165 14.5096 0.165C14.3489 0.165 14.2283 0.147304 14.2283 0.12375C14.2283 0.0992888 14.0809 0.0825 13.8666 0.0825C13.6522 0.0825 13.5048 0.0657113 13.5048 0.04125C13.5048 0.0148913 13.1565 0 12.5402 0C11.9239 0 11.5756 0.0148913 11.5756 0.04125ZM13.4244 2.02125C13.4244 2.04571 13.5718 2.0625 13.7862 2.0625C14.0005 2.0625 14.1479 2.07929 14.1479 2.10375C14.1479 2.12669 14.2551 2.145 14.3891 2.145C14.523 2.145 14.6302 2.16332 14.6302 2.18625C14.6302 2.20894 14.7026 2.2275 14.791 2.2275C14.8794 2.2275 14.9518 2.24606 14.9518 2.26875C14.9518 2.29144 15.0241 2.31 15.1125 2.31C15.201 2.31 15.2733 2.32856 15.2733 2.35125C15.2733 2.37394 15.3457 2.3925 15.4341 2.3925C15.5225 2.3925 15.5949 2.41106 15.5949 2.43375C15.5949 2.45644 15.6491 2.475 15.7154 2.475C15.7818 2.475 15.836 2.49356 15.836 2.51625C15.836 2.53894 15.8903 2.5575 15.9566 2.5575C16.0229 2.5575 16.0772 2.57606 16.0772 2.59875C16.0772 2.62144 16.1314 2.64 16.1977 2.64C16.2641 2.64 16.3183 2.65856 16.3183 2.68125C16.3183 2.70394 16.3545 2.7225 16.3987 2.7225C16.4429 2.7225 16.4791 2.74106 16.4791 2.76375C16.4791 2.78644 16.5153 2.805 16.5595 2.805C16.6037 2.805 16.6399 2.82356 16.6399 2.84625C16.6399 2.86894 16.6941 2.8875 16.7605 2.8875C16.8268 2.8875 16.881 2.90606 16.881 2.92875C16.881 2.95144 16.9172 2.97 16.9614 2.97C17.0056 2.97 17.0418 2.98856 17.0418 3.01125C17.0418 3.03394 17.078 3.0525 17.1222 3.0525C17.1664 3.0525 17.2026 3.07106 17.2026 3.09375C17.2026 3.11644 17.2387 3.135 17.283 3.135C17.3272 3.135 17.3633 3.15356 17.3633 3.17625C17.3633 3.19894 17.3995 3.2175 17.4437 3.2175C17.4879 3.2175 17.5241 3.23606 17.5241 3.25875C17.5241 3.28144 17.5563 3.3 17.5956 3.3C17.635 3.3 17.6932 3.33713 17.7251 3.3825C17.757 3.42788 17.8152 3.465 17.8545 3.465C17.8939 3.465 17.926 3.48356 17.926 3.50625C17.926 3.52894 17.9582 3.5475 17.9975 3.5475C18.0369 3.5475 18.0951 3.58463 18.127 3.63C18.1589 3.67538 18.2131 3.7125 18.2476 3.7125C18.282 3.7125 18.3363 3.74963 18.3682 3.795C18.4 3.84038 18.4543 3.8775 18.4887 3.8775C18.5232 3.8775 18.5775 3.91463 18.6093 3.96C18.6412 4.00538 18.6922 4.0425 18.7227 4.0425C18.7531 4.0425 18.8287 4.09819 18.8907 4.16625C18.9526 4.23431 19.0244 4.29 19.0501 4.29C19.0758 4.29 19.1849 4.38281 19.2926 4.49625C19.4003 4.60969 19.5078 4.7025 19.5316 4.7025C19.5881 4.7025 20.418 5.55423 20.418 5.61219C20.418 5.63661 20.5084 5.74699 20.619 5.8575C20.7295 5.96801 20.8199 6.08 20.8199 6.1064C20.8199 6.1328 20.8742 6.20643 20.9405 6.27C21.0068 6.33357 21.0611 6.40782 21.0611 6.435C21.0611 6.46218 21.1154 6.53643 21.1817 6.6C21.248 6.66357 21.3022 6.7412 21.3022 6.77243C21.3022 6.80369 21.3384 6.85604 21.3826 6.88875C21.4268 6.92146 21.463 6.98123 21.463 7.02162C21.463 7.06196 21.4811 7.095 21.5032 7.095C21.5253 7.095 21.5434 7.12804 21.5434 7.16838C21.5434 7.20877 21.5796 7.26854 21.6238 7.30125C21.668 7.33396 21.7042 7.39373 21.7042 7.43412C21.7042 7.47446 21.7223 7.5075 21.7444 7.5075C21.7665 7.5075 21.7846 7.54463 21.7846 7.59C21.7846 7.63538 21.8027 7.6725 21.8248 7.6725C21.8469 7.6725 21.865 7.70963 21.865 7.755C21.865 7.80038 21.883 7.8375 21.9051 7.8375C21.9272 7.8375 21.9453 7.87463 21.9453 7.92C21.9453 7.96538 21.9634 8.0025 21.9855 8.0025C22.0076 8.0025 22.0257 8.03963 22.0257 8.085C22.0257 8.13037 22.0438 8.1675 22.0659 8.1675C22.088 8.1675 22.1061 8.20463 22.1061 8.25C22.1061 8.29537 22.1242 8.3325 22.1463 8.3325C22.1684 8.3325 22.1865 8.36963 22.1865 8.415C22.1865 8.46038 22.2046 8.4975 22.2267 8.4975C22.2488 8.4975 22.2669 8.55319 22.2669 8.62125C22.2669 8.68931 22.285 8.745 22.3071 8.745C22.3292 8.745 22.3473 8.78213 22.3473 8.8275C22.3473 8.87288 22.3654 8.91 22.3875 8.91C22.4096 8.91 22.4277 8.96569 22.4277 9.03375C22.4277 9.10181 22.4457 9.1575 22.4678 9.1575C22.49 9.1575 22.508 9.21319 22.508 9.28125C22.508 9.34931 22.5261 9.405 22.5482 9.405C22.5703 9.405 22.5884 9.46069 22.5884 9.52875C22.5884 9.59681 22.6065 9.6525 22.6286 9.6525C22.6507 9.6525 22.6688 9.70819 22.6688 9.77625C22.6688 9.84431 22.6869 9.9 22.709 9.9C22.7311 9.9 22.7492 9.97425 22.7492 10.065C22.7492 10.1558 22.7673 10.23 22.7894 10.23C22.8115 10.23 22.8296 10.3043 22.8296 10.395C22.8296 10.4858 22.8477 10.56 22.8698 10.56C22.8921 10.56 22.91 10.67 22.91 10.8075C22.91 10.945 22.9278 11.055 22.9502 11.055C22.9731 11.055 22.9904 11.1788 22.9904 11.3438C22.9904 11.5088 23.0076 11.6325 23.0305 11.6325C23.0563 11.6325 23.0707 12.0313 23.0707 12.7463C23.0707 13.4612 23.0563 13.86 23.0305 13.86C23.0071 13.86 22.9904 13.9975 22.9904 14.19C22.9904 14.3825 22.9736 14.52 22.9502 14.52C22.9281 14.52 22.91 14.6128 22.91 14.7263C22.91 14.8397 22.8919 14.9325 22.8698 14.9325C22.8477 14.9325 22.8296 15.0253 22.8296 15.1388C22.8296 15.2522 22.8115 15.345 22.7894 15.345C22.7673 15.345 22.7492 15.4193 22.7492 15.51C22.7492 15.6008 22.7311 15.675 22.709 15.675C22.6869 15.675 22.6688 15.7307 22.6688 15.7988C22.6688 15.8668 22.6507 15.9225 22.6286 15.9225C22.6065 15.9225 22.5884 15.9782 22.5884 16.0463C22.5884 16.1143 22.5703 16.17 22.5482 16.17C22.5261 16.17 22.508 16.2257 22.508 16.2938C22.508 16.3618 22.49 16.4175 22.4678 16.4175C22.4457 16.4175 22.4277 16.4732 22.4277 16.5413C22.4277 16.6093 22.4096 16.665 22.3875 16.665C22.3654 16.665 22.3473 16.7021 22.3473 16.7475C22.3473 16.7929 22.3292 16.83 22.3071 16.83C22.285 16.83 22.2669 16.8671 22.2669 16.9125C22.2669 16.9579 22.2488 16.995 22.2267 16.995C22.2046 16.995 22.1865 17.0507 22.1865 17.1188C22.1865 17.1868 22.1684 17.2425 22.1463 17.2425C22.1242 17.2425 22.1061 17.2796 22.1061 17.325C22.1061 17.3704 22.088 17.4075 22.0659 17.4075C22.0438 17.4075 22.0257 17.4446 22.0257 17.49C22.0257 17.5354 22.0076 17.5725 21.9855 17.5725C21.9634 17.5725 21.9453 17.6096 21.9453 17.655C21.9453 17.7004 21.9272 17.7375 21.9051 17.7375C21.883 17.7375 21.865 17.7746 21.865 17.82C21.865 17.8654 21.8469 17.9025 21.8248 17.9025C21.8027 17.9025 21.7846 17.9355 21.7846 17.9759C21.7846 18.0163 21.7484 18.076 21.7042 18.1088C21.66 18.1415 21.6238 18.2012 21.6238 18.2416C21.6238 18.282 21.6057 18.315 21.5836 18.315C21.5615 18.315 21.5434 18.348 21.5434 18.3884C21.5434 18.4288 21.5072 18.4885 21.463 18.5213C21.4188 18.554 21.3826 18.6096 21.3826 18.645C21.3826 18.6804 21.3465 18.736 21.3022 18.7688C21.258 18.8015 21.2219 18.8571 21.2219 18.8925C21.2219 18.9279 21.1857 18.9835 21.1415 19.0163C21.0973 19.049 21.0611 19.1013 21.0611 19.1326C21.0611 19.1638 21.0068 19.2414 20.9405 19.305C20.8742 19.3686 20.8199 19.4428 20.8199 19.47C20.8199 19.4972 20.7657 19.5714 20.6994 19.635C20.633 19.6986 20.5788 19.7728 20.5788 19.8C20.5788 19.8272 20.5245 19.9014 20.4582 19.965C20.3919 20.0286 20.3376 20.1028 20.3376 20.13C20.3376 20.1572 20.2834 20.2314 20.217 20.295C20.1507 20.3586 20.0965 20.4328 20.0965 20.46C20.0965 20.4872 20.0422 20.5614 19.9759 20.625C19.9096 20.6886 19.8553 20.7628 19.8553 20.79C19.8553 20.8172 19.801 20.8914 19.7347 20.955C19.6684 21.0186 19.6141 21.0928 19.6141 21.12C19.6141 21.1472 19.5599 21.2214 19.4936 21.285C19.4272 21.3486 19.373 21.4228 19.373 21.45C19.373 21.4772 19.3187 21.5514 19.2524 21.615C19.1861 21.6786 19.1318 21.7528 19.1318 21.78C19.1318 21.8072 19.0776 21.8814 19.0113 21.945C18.9449 22.0086 18.8907 22.0828 18.8907 22.11C18.8907 22.1372 18.8364 22.2114 18.7701 22.275C18.7038 22.3386 18.6495 22.4128 18.6495 22.44C18.6495 22.4672 18.5953 22.5414 18.5289 22.605C18.4626 22.6686 18.4084 22.7428 18.4084 22.77C18.4084 22.7972 18.3541 22.8714 18.2878 22.935C18.2215 22.9986 18.1672 23.0728 18.1672 23.1C18.1672 23.1272 18.1129 23.2014 18.0466 23.265C17.9803 23.3286 17.926 23.4028 17.926 23.43C17.926 23.4572 17.8718 23.5314 17.8055 23.595C17.7391 23.6586 17.6849 23.7328 17.6849 23.76C17.6849 23.7872 17.6306 23.8614 17.5643 23.925C17.498 23.9886 17.4437 24.0628 17.4437 24.09C17.4437 24.1172 17.3895 24.1914 17.3232 24.255C17.2568 24.3186 17.2026 24.3928 17.2026 24.42C17.2026 24.4472 17.1483 24.5214 17.082 24.585C17.0157 24.6486 16.9614 24.7228 16.9614 24.75C16.9614 24.7772 16.9072 24.8514 16.8408 24.915C16.7745 24.9786 16.7203 25.0528 16.7203 25.08C16.7203 25.1072 16.666 25.1814 16.5997 25.245C16.5334 25.3086 16.4791 25.3828 16.4791 25.41C16.4791 25.4372 16.4248 25.5114 16.3585 25.575C16.2922 25.6386 16.2379 25.7128 16.2379 25.74C16.2379 25.7672 16.1837 25.8414 16.1174 25.905C16.051 25.9686 15.9968 26.0428 15.9968 26.07C15.9968 26.0972 15.9425 26.1714 15.8762 26.235C15.8099 26.2986 15.7556 26.3728 15.7556 26.4C15.7556 26.4272 15.7014 26.5014 15.635 26.565C15.5687 26.6286 15.5145 26.7028 15.5145 26.73C15.5145 26.7572 15.4602 26.8314 15.3939 26.895C15.3276 26.9586 15.2733 27.0328 15.2733 27.06C15.2733 27.0872 15.2191 27.1614 15.1527 27.225C15.0864 27.2886 15.0322 27.3628 15.0322 27.39C15.0322 27.4172 14.9779 27.4914 14.9116 27.555C14.8453 27.6186 14.791 27.6928 14.791 27.72C14.791 27.7472 14.7367 27.8214 14.6704 27.885C14.6041 27.9486 14.5498 28.0228 14.5498 28.05C14.5498 28.0772 14.4956 28.1514 14.4293 28.215C14.3629 28.2786 14.3087 28.3528 14.3087 28.38C14.3087 28.4072 14.2544 28.4814 14.1881 28.545C14.1218 28.6086 14.0675 28.6828 14.0675 28.71C14.0675 28.7372 14.0133 28.8114 13.9469 28.875C13.8806 28.9386 13.8264 29.0128 13.8264 29.04C13.8264 29.0672 13.7721 29.1414 13.7058 29.205C13.6395 29.2686 13.5852 29.3428 13.5852 29.37C13.5852 29.3972 13.5309 29.4714 13.4646 29.535C13.3983 29.5986 13.3441 29.6728 13.3441 29.7C13.3441 29.7272 13.2898 29.8014 13.2235 29.865C13.1572 29.9286 13.1029 30.0028 13.1029 30.03C13.1029 30.0572 13.0486 30.1314 12.9823 30.195C12.916 30.2586 12.8617 30.3328 12.8617 30.36C12.8617 30.3872 12.8075 30.4614 12.7412 30.525C12.6748 30.5886 12.6206 30.6703 12.6206 30.7065C12.6206 30.745 12.5871 30.7725 12.5402 30.7725C12.4933 30.7725 12.4598 30.745 12.4598 30.7065C12.4598 30.6703 12.4055 30.5886 12.3392 30.525C12.2729 30.4614 12.2186 30.3872 12.2186 30.36C12.2186 30.3328 12.1644 30.2586 12.0981 30.195C12.0318 30.1314 11.9775 30.0572 11.9775 30.03C11.9775 30.0028 11.9232 29.9286 11.8569 29.865C11.7906 29.8014 11.7363 29.7272 11.7363 29.7C11.7363 29.6728 11.6821 29.5986 11.6158 29.535C11.5494 29.4714 11.4952 29.3972 11.4952 29.37C11.4952 29.3428 11.4409 29.2686 11.3746 29.205C11.3083 29.1414 11.254 29.0672 11.254 29.04C11.254 29.0128 11.1998 28.9386 11.1334 28.875C11.0671 28.8114 11.0129 28.7372 11.0129 28.71C11.0129 28.6828 10.9586 28.6086 10.8923 28.545C10.826 28.4814 10.7717 28.4072 10.7717 28.38C10.7717 28.3528 10.7174 28.2786 10.6511 28.215C10.5848 28.1514 10.5305 28.0772 10.5305 28.05C10.5305 28.0228 10.4763 27.9486 10.41 27.885C10.3436 27.8214 10.2894 27.7438 10.2894 27.7126C10.2894 27.6813 10.2532 27.629 10.209 27.5963C10.1648 27.5635 10.1286 27.5112 10.1286 27.4799C10.1286 27.4487 10.0744 27.3711 10.008 27.3075C9.94172 27.2439 9.88746 27.1697 9.88746 27.1425C9.88746 27.1153 9.8332 27.0411 9.76688 26.9775C9.70056 26.9139 9.6463 26.8397 9.6463 26.8125C9.6463 26.7853 9.59204 26.7111 9.52572 26.6475C9.4594 26.5839 9.40514 26.5097 9.40514 26.4825C9.40514 26.4553 9.35088 26.3811 9.28457 26.3175C9.21825 26.2539 9.16399 26.1797 9.16399 26.1525C9.16399 26.1253 9.10973 26.0511 9.04341 25.9875C8.97709 25.9239 8.92283 25.8497 8.92283 25.8225C8.92283 25.7953 8.86857 25.7211 8.80225 25.6575C8.73593 25.5939 8.68167 25.5197 8.68167 25.4925C8.68167 25.4653 8.62741 25.3911 8.56109 25.3275C8.49477 25.2639 8.44051 25.1897 8.44051 25.1625C8.44051 25.1353 8.38625 25.0611 8.31994 24.9975C8.25362 24.9339 8.19936 24.8597 8.19936 24.8325C8.19936 24.8053 8.1451 24.7311 8.07878 24.6675C8.01246 24.6039 7.9582 24.5297 7.9582 24.5025C7.9582 24.4753 7.90394 24.4011 7.83762 24.3375C7.7713 24.2739 7.71704 24.1997 7.71704 24.1725C7.71704 24.1453 7.66278 24.0711 7.59646 24.0075C7.53014 23.9439 7.47588 23.8697 7.47588 23.8425C7.47588 23.8153 7.42162 23.7411 7.35531 23.6775C7.28899 23.6139 7.23473 23.5397 7.23473 23.5125C7.23473 23.4853 7.18047 23.4111 7.11415 23.3475C7.04783 23.2839 6.99357 23.2097 6.99357 23.1825C6.99357 23.1553 6.93931 23.0811 6.87299 23.0175C6.80667 22.9539 6.75241 22.8797 6.75241 22.8525C6.75241 22.8253 6.69815 22.7511 6.63183 22.6875C6.56551 22.6239 6.51125 22.5497 6.51125 22.5225C6.51125 22.4953 6.45699 22.4211 6.39068 22.3575C6.32436 22.2939 6.2701 22.2197 6.2701 22.1925C6.2701 22.1653 6.21584 22.0911 6.14952 22.0275C6.0832 21.9639 6.02894 21.8897 6.02894 21.8625C6.02894 21.8353 5.97468 21.7611 5.90836 21.6975C5.84204 21.6339 5.78778 21.5597 5.78778 21.5325C5.78778 21.5053 5.73352 21.4311 5.6672 21.3675C5.60088 21.3039 5.54662 21.2297 5.54662 21.2025C5.54662 21.1753 5.49236 21.1011 5.42604 21.0375C5.35973 20.9739 5.30547 20.8997 5.30547 20.8725C5.30547 20.8453 5.25121 20.7711 5.18489 20.7075C5.11857 20.6439 5.06431 20.5697 5.06431 20.5425C5.06431 20.5153 5.01005 20.4411 4.94373 20.3775C4.87741 20.3139 4.82315 20.2397 4.82315 20.2125C4.82315 20.1853 4.76889 20.1111 4.70257 20.0475C4.63625 19.9839 4.58199 19.9097 4.58199 19.8825C4.58199 19.8553 4.52773 19.7811 4.46141 19.7175C4.3951 19.6539 4.34084 19.5797 4.34084 19.5525C4.34084 19.5253 4.28658 19.4511 4.22026 19.3875C4.15394 19.3239 4.09968 19.2501 4.09968 19.2233C4.09968 19.1966 4.02733 19.1035 3.93891 19.0163C3.85048 18.929 3.77813 18.8325 3.77813 18.8017C3.77813 18.7709 3.74196 18.719 3.69775 18.6863C3.65354 18.6535 3.61736 18.5938 3.61736 18.5534C3.61736 18.513 3.59928 18.48 3.57717 18.48C3.55506 18.48 3.53698 18.447 3.53698 18.4066C3.53698 18.3662 3.5008 18.3065 3.45659 18.2738C3.41238 18.241 3.37621 18.1813 3.37621 18.1409C3.37621 18.1005 3.35812 18.0675 3.33601 18.0675C3.31391 18.0675 3.29582 18.0304 3.29582 17.985C3.29582 17.9396 3.27773 17.9025 3.25563 17.9025C3.23352 17.9025 3.21543 17.8654 3.21543 17.82C3.21543 17.7746 3.19735 17.7375 3.17524 17.7375C3.15313 17.7375 3.13505 17.7004 3.13505 17.655C3.13505 17.6096 3.11696 17.5725 3.09486 17.5725C3.07275 17.5725 3.05466 17.5354 3.05466 17.49C3.05466 17.4446 3.03658 17.4075 3.01447 17.4075C2.99236 17.4075 2.97428 17.3704 2.97428 17.325C2.97428 17.2796 2.95619 17.2425 2.93408 17.2425C2.91198 17.2425 2.89389 17.2054 2.89389 17.16C2.89389 17.1146 2.8758 17.0775 2.8537 17.0775C2.83159 17.0775 2.8135 17.0404 2.8135 16.995C2.8135 16.9496 2.79542 16.9125 2.77331 16.9125C2.75121 16.9125 2.73312 16.8568 2.73312 16.7888C2.73312 16.7207 2.71503 16.665 2.69293 16.665C2.67082 16.665 2.65273 16.6279 2.65273 16.5825C2.65273 16.5371 2.63465 16.5 2.61254 16.5C2.59043 16.5 2.57235 16.4443 2.57235 16.3763C2.57235 16.3082 2.55426 16.2525 2.53215 16.2525C2.51005 16.2525 2.49196 16.1968 2.49196 16.1287C2.49196 16.0607 2.47387 16.005 2.45177 16.005C2.42966 16.005 2.41158 15.9493 2.41158 15.8813C2.41158 15.8132 2.39349 15.7575 2.37138 15.7575C2.34928 15.7575 2.33119 15.6833 2.33119 15.5925C2.33119 15.5018 2.3131 15.4275 2.291 15.4275C2.26889 15.4275 2.2508 15.3533 2.2508 15.2625C2.2508 15.1718 2.23272 15.0975 2.21061 15.0975C2.1885 15.0975 2.17042 15.0047 2.17042 14.8913C2.17042 14.7778 2.15233 14.685 2.13022 14.685C2.10727 14.685 2.09003 14.5613 2.09003 14.3963C2.09003 14.2313 2.07279 14.1075 2.04984 14.1075C2.02548 14.1075 2.00965 13.9288 2.00965 13.6538C2.00965 13.3787 1.99381 13.2 1.96945 13.2C1.94562 13.2 1.92926 13.0487 1.92926 12.8288C1.92926 12.6088 1.94562 12.4575 1.96945 12.4575C1.99401 12.4575 2.00965 12.265 2.00965 11.9625C2.00965 11.66 2.02528 11.4675 2.04984 11.4675C2.07279 11.4675 2.09003 11.3438 2.09003 11.1788C2.09003 11.0138 2.10727 10.89 2.13022 10.89C2.15233 10.89 2.17042 10.7972 2.17042 10.6838C2.17042 10.5703 2.1885 10.4775 2.21061 10.4775C2.23272 10.4775 2.2508 10.4033 2.2508 10.3125C2.2508 10.2218 2.26889 10.1475 2.291 10.1475C2.3131 10.1475 2.33119 10.0733 2.33119 9.9825C2.33119 9.89175 2.34928 9.8175 2.37138 9.8175C2.39349 9.8175 2.41158 9.76181 2.41158 9.69375C2.41158 9.62569 2.42966 9.57 2.45177 9.57C2.47387 9.57 2.49196 9.51431 2.49196 9.44625C2.49196 9.37819 2.51005 9.3225 2.53215 9.3225C2.55426 9.3225 2.57235 9.26681 2.57235 9.19875C2.57235 9.13069 2.59043 9.075 2.61254 9.075C2.63465 9.075 2.65273 9.03788 2.65273 8.9925C2.65273 8.94713 2.67082 8.91 2.69293 8.91C2.71503 8.91 2.73312 8.85431 2.73312 8.78625C2.73312 8.71819 2.75121 8.6625 2.77331 8.6625C2.79542 8.6625 2.8135 8.62538 2.8135 8.58C2.8135 8.53463 2.83159 8.4975 2.8537 8.4975C2.8758 8.4975 2.89389 8.46038 2.89389 8.415C2.89389 8.36963 2.91198 8.3325 2.93408 8.3325C2.95619 8.3325 2.97428 8.27681 2.97428 8.20875C2.97428 8.14069 2.99236 8.085 3.01447 8.085C3.03658 8.085 3.05466 8.04788 3.05466 8.0025C3.05466 7.95713 3.07275 7.92 3.09486 7.92C3.11696 7.92 3.13505 7.88696 3.13505 7.84662C3.13505 7.80623 3.17122 7.74646 3.21543 7.71375C3.25965 7.68104 3.29582 7.62127 3.29582 7.58088C3.29582 7.54054 3.31391 7.5075 3.33601 7.5075C3.35812 7.5075 3.37621 7.47038 3.37621 7.425C3.37621 7.37963 3.39429 7.3425 3.4164 7.3425C3.4385 7.3425 3.45659 7.30946 3.45659 7.26912C3.45659 7.22873 3.49277 7.16896 3.53698 7.13625C3.58119 7.10354 3.61736 7.04785 3.61736 7.0125C3.61736 6.97715 3.65354 6.92146 3.69775 6.88875C3.74196 6.85604 3.77813 6.80035 3.77813 6.765C3.77813 6.72965 3.81431 6.67396 3.85852 6.64125C3.90273 6.60854 3.93891 6.55619 3.93891 6.52492C3.93891 6.4937 3.99317 6.41607 4.05949 6.3525C4.1258 6.28893 4.18006 6.2153 4.18006 6.1889C4.18006 6.1625 4.2705 6.05051 4.38103 5.94C4.49156 5.82949 4.58199 5.71915 4.58199 5.69473C4.58199 5.63681 5.49236 4.7025 5.54879 4.7025C5.57259 4.7025 5.6801 4.60969 5.78778 4.49625C5.89546 4.38281 6.00458 4.29 6.0303 4.29C6.05603 4.29 6.12777 4.23431 6.18971 4.16625C6.25165 4.09819 6.32729 4.0425 6.35772 4.0425C6.38818 4.0425 6.43919 4.00538 6.47106 3.96C6.50293 3.91463 6.55719 3.8775 6.59164 3.8775C6.62608 3.8775 6.68035 3.84038 6.71222 3.795C6.74409 3.74963 6.79835 3.7125 6.8328 3.7125C6.86724 3.7125 6.9215 3.67538 6.95338 3.63C6.98525 3.58463 7.04349 3.5475 7.08284 3.5475C7.12215 3.5475 7.15434 3.52894 7.15434 3.50625C7.15434 3.48356 7.18653 3.465 7.22584 3.465C7.26519 3.465 7.32343 3.42788 7.35531 3.3825C7.38718 3.33713 7.44542 3.3 7.48477 3.3C7.52408 3.3 7.55627 3.28144 7.55627 3.25875C7.55627 3.23606 7.59244 3.2175 7.63666 3.2175C7.68087 3.2175 7.71704 3.19894 7.71704 3.17625C7.71704 3.15356 7.75322 3.135 7.79743 3.135C7.84164 3.135 7.87781 3.11644 7.87781 3.09375C7.87781 3.07106 7.91399 3.0525 7.9582 3.0525C8.00241 3.0525 8.03858 3.03394 8.03858 3.01125C8.03858 2.98856 8.07476 2.97 8.11897 2.97C8.16318 2.97 8.19936 2.95144 8.19936 2.92875C8.19936 2.90606 8.25362 2.8875 8.31994 2.8875C8.38625 2.8875 8.44051 2.86894 8.44051 2.84625C8.44051 2.82356 8.47669 2.805 8.5209 2.805C8.56511 2.805 8.60129 2.78644 8.60129 2.76375C8.60129 2.74106 8.65555 2.7225 8.72186 2.7225C8.78818 2.7225 8.84244 2.70394 8.84244 2.68125C8.84244 2.65856 8.87862 2.64 8.92283 2.64C8.96704 2.64 9.00321 2.62144 9.00321 2.59875C9.00321 2.57606 9.05748 2.5575 9.12379 2.5575C9.19011 2.5575 9.24437 2.53894 9.24437 2.51625C9.24437 2.49356 9.29863 2.475 9.36495 2.475C9.43127 2.475 9.48553 2.45644 9.48553 2.43375C9.48553 2.41106 9.55788 2.3925 9.6463 2.3925C9.73473 2.3925 9.80707 2.37394 9.80707 2.35125C9.80707 2.32856 9.87942 2.31 9.96784 2.31C10.0563 2.31 10.1286 2.29144 10.1286 2.26875C10.1286 2.24606 10.2191 2.2275 10.3296 2.2275C10.4401 2.2275 10.5305 2.20894 10.5305 2.18625C10.5305 2.16356 10.621 2.145 10.7315 2.145C10.842 2.145 10.9325 2.12644 10.9325 2.10375C10.9325 2.07929 11.0799 2.0625 11.2942 2.0625C11.5086 2.0625 11.6559 2.04571 11.6559 2.02125C11.6559 1.99502 11.9775 1.98 12.5402 1.98C13.1029 1.98 13.4244 1.99502 13.4244 2.02125ZM12.2186 6.31125C12.2186 6.33571 12.0713 6.3525 11.8569 6.3525C11.6426 6.3525 11.4952 6.36929 11.4952 6.39375C11.4952 6.41644 11.4047 6.435 11.2942 6.435C11.1837 6.435 11.0932 6.45356 11.0932 6.47625C11.0932 6.49894 11.0209 6.5175 10.9325 6.5175C10.8441 6.5175 10.7717 6.53606 10.7717 6.55875C10.7717 6.58144 10.7174 6.6 10.6511 6.6C10.5848 6.6 10.5305 6.61856 10.5305 6.64125C10.5305 6.66394 10.4763 6.6825 10.41 6.6825C10.3436 6.6825 10.2894 6.70106 10.2894 6.72375C10.2894 6.74644 10.2532 6.765 10.209 6.765C10.1648 6.765 10.1286 6.78356 10.1286 6.80625C10.1286 6.82894 10.0924 6.8475 10.0482 6.8475C10.004 6.8475 9.96784 6.86606 9.96784 6.88875C9.96784 6.91144 9.93167 6.93 9.88746 6.93C9.84325 6.93 9.80707 6.94856 9.80707 6.97125C9.80707 6.99394 9.7709 7.0125 9.72669 7.0125C9.68248 7.0125 9.6463 7.03106 9.6463 7.05375C9.6463 7.07644 9.61013 7.095 9.56592 7.095C9.5217 7.095 9.48553 7.11356 9.48553 7.13625C9.48553 7.15894 9.44936 7.1775 9.40514 7.1775C9.36093 7.1775 9.32476 7.19606 9.32476 7.21875C9.32476 7.24144 9.29256 7.26 9.25326 7.26C9.21391 7.26 9.15567 7.29713 9.12379 7.3425C9.09192 7.38788 9.04132 7.425 9.01129 7.425C8.98127 7.425 8.88722 7.49925 8.80225 7.59C8.71728 7.68075 8.62805 7.755 8.60394 7.755C8.54666 7.755 7.79743 8.52394 7.79743 8.58272C7.79743 8.60747 7.72508 8.69905 7.63666 8.78625C7.54823 8.87345 7.47588 8.96998 7.47588 9.00079C7.47588 9.0316 7.43971 9.08354 7.3955 9.11625C7.35129 9.14896 7.31511 9.20873 7.31511 9.24912C7.31511 9.28946 7.29703 9.3225 7.27492 9.3225C7.25281 9.3225 7.23473 9.35963 7.23473 9.405C7.23473 9.45038 7.21664 9.4875 7.19453 9.4875C7.17243 9.4875 7.15434 9.52463 7.15434 9.57C7.15434 9.61538 7.13625 9.6525 7.11415 9.6525C7.09204 9.6525 7.07395 9.68963 7.07395 9.735C7.07395 9.78038 7.05587 9.8175 7.03376 9.8175C7.01166 9.8175 6.99357 9.85463 6.99357 9.9C6.99357 9.94538 6.97548 9.9825 6.95338 9.9825C6.93127 9.9825 6.91318 10.0196 6.91318 10.065C6.91318 10.1104 6.8951 10.1475 6.87299 10.1475C6.85088 10.1475 6.8328 10.2032 6.8328 10.2713C6.8328 10.3393 6.81471 10.395 6.7926 10.395C6.7705 10.395 6.75241 10.4507 6.75241 10.5188C6.75241 10.5868 6.73432 10.6425 6.71222 10.6425C6.69011 10.6425 6.67203 10.6982 6.67203 10.7663C6.67203 10.8343 6.65394 10.89 6.63183 10.89C6.60973 10.89 6.59164 10.9828 6.59164 11.0963C6.59164 11.2097 6.57355 11.3025 6.55145 11.3025C6.52761 11.3025 6.51125 11.4538 6.51125 11.6738C6.51125 11.8937 6.4949 12.045 6.47106 12.045C6.44811 12.045 6.43087 12.1688 6.43087 12.3338C6.43087 12.4988 6.44811 12.6225 6.47106 12.6225C6.4949 12.6225 6.51125 12.7738 6.51125 12.9938C6.51125 13.2137 6.52761 13.365 6.55145 13.365C6.57355 13.365 6.59164 13.4578 6.59164 13.5713C6.59164 13.6847 6.60973 13.7775 6.63183 13.7775C6.65394 13.7775 6.67203 13.8332 6.67203 13.9013C6.67203 13.9693 6.69011 14.025 6.71222 14.025C6.73432 14.025 6.75241 14.0807 6.75241 14.1488C6.75241 14.2168 6.7705 14.2725 6.7926 14.2725C6.81471 14.2725 6.8328 14.3282 6.8328 14.3963C6.8328 14.4643 6.85088 14.52 6.87299 14.52C6.8951 14.52 6.91318 14.5571 6.91318 14.6025C6.91318 14.6479 6.93127 14.685 6.95338 14.685C6.97548 14.685 6.99357 14.7407 6.99357 14.8088C6.99357 14.8768 7.01166 14.9325 7.03376 14.9325C7.05587 14.9325 7.07395 14.9655 7.07395 15.0059C7.07395 15.0463 7.11013 15.106 7.15434 15.1388C7.19855 15.1715 7.23473 15.2312 7.23473 15.2716C7.23473 15.312 7.25281 15.345 7.27492 15.345C7.29703 15.345 7.31511 15.378 7.31511 15.4184C7.31511 15.4588 7.35129 15.5185 7.3955 15.5513C7.43971 15.584 7.47588 15.6396 7.47588 15.675C7.47588 15.7104 7.51206 15.766 7.55627 15.7988C7.60048 15.8315 7.63666 15.8821 7.63666 15.9114C7.63666 15.9761 8.70301 17.0775 8.76567 17.0775C8.79015 17.0775 8.86089 17.1332 8.92283 17.2013C8.98477 17.2693 9.06041 17.325 9.09084 17.325C9.1213 17.325 9.17231 17.3621 9.20418 17.4075C9.23605 17.4529 9.29429 17.49 9.33364 17.49C9.37295 17.49 9.40514 17.5086 9.40514 17.5312C9.40514 17.5539 9.43734 17.5725 9.47665 17.5725C9.516 17.5725 9.57424 17.6096 9.60611 17.655C9.63798 17.7004 9.69622 17.7375 9.73557 17.7375C9.77488 17.7375 9.80707 17.7561 9.80707 17.7788C9.80707 17.8014 9.86133 17.82 9.92765 17.82C9.99397 17.82 10.0482 17.8386 10.0482 17.8612C10.0482 17.8839 10.0844 17.9025 10.1286 17.9025C10.1728 17.9025 10.209 17.9211 10.209 17.9438C10.209 17.9664 10.2633 17.985 10.3296 17.985C10.3959 17.985 10.4502 18.0036 10.4502 18.0263C10.4502 18.0489 10.4863 18.0675 10.5305 18.0675C10.5748 18.0675 10.6109 18.0861 10.6109 18.1088C10.6109 18.1314 10.6833 18.15 10.7717 18.15C10.8601 18.15 10.9325 18.1686 10.9325 18.1912C10.9325 18.2139 11.0048 18.2325 11.0932 18.2325C11.1817 18.2325 11.254 18.2511 11.254 18.2738C11.254 18.2967 11.3612 18.315 11.4952 18.315C11.6291 18.315 11.7363 18.3333 11.7363 18.3563C11.7363 18.3824 12.0311 18.3975 12.5402 18.3975C13.0493 18.3975 13.3441 18.3824 13.3441 18.3563C13.3441 18.3333 13.4512 18.315 13.5852 18.315C13.7192 18.315 13.8264 18.2967 13.8264 18.2738C13.8264 18.2511 13.8987 18.2325 13.9871 18.2325C14.0756 18.2325 14.1479 18.2139 14.1479 18.1912C14.1479 18.1686 14.2203 18.15 14.3087 18.15C14.3971 18.15 14.4695 18.1314 14.4695 18.1088C14.4695 18.0861 14.5237 18.0675 14.59 18.0675C14.6564 18.0675 14.7106 18.0489 14.7106 18.0263C14.7106 18.0036 14.7468 17.985 14.791 17.985C14.8352 17.985 14.8714 17.9664 14.8714 17.9438C14.8714 17.9211 14.9256 17.9025 14.992 17.9025C15.0583 17.9025 15.1125 17.8839 15.1125 17.8612C15.1125 17.8386 15.1487 17.82 15.1929 17.82C15.2371 17.82 15.2733 17.8014 15.2733 17.7788C15.2733 17.7561 15.3095 17.7375 15.3537 17.7375C15.3979 17.7375 15.4341 17.7189 15.4341 17.6963C15.4341 17.6736 15.4663 17.655 15.5056 17.655C15.5449 17.655 15.6032 17.6179 15.635 17.5725C15.6669 17.5271 15.7212 17.49 15.7556 17.49C15.7901 17.49 15.8443 17.4529 15.8762 17.4075C15.9081 17.3621 15.9623 17.325 15.9968 17.325C16.0312 17.325 16.0855 17.2879 16.1174 17.2425C16.1492 17.1971 16.1996 17.16 16.2293 17.16C16.259 17.16 16.3714 17.0672 16.4791 16.9538C16.5868 16.8403 16.6946 16.7475 16.7187 16.7475C16.7761 16.7475 17.1222 16.3919 17.1222 16.3329C17.1222 16.3078 17.1945 16.216 17.283 16.1287C17.3714 16.0415 17.4437 15.9484 17.4437 15.9217C17.4437 15.8949 17.498 15.8211 17.5643 15.7575C17.6306 15.6939 17.6849 15.6122 17.6849 15.576C17.6849 15.5397 17.703 15.51 17.7251 15.51C17.7472 15.51 17.7653 15.477 17.7653 15.4366C17.7653 15.3962 17.8014 15.3365 17.8457 15.3038C17.8899 15.271 17.926 15.2113 17.926 15.1709C17.926 15.1305 17.9441 15.0975 17.9662 15.0975C17.9883 15.0975 18.0064 15.0604 18.0064 15.015C18.0064 14.9696 18.0245 14.9325 18.0466 14.9325C18.0687 14.9325 18.0868 14.8954 18.0868 14.85C18.0868 14.8046 18.1049 14.7675 18.127 14.7675C18.1491 14.7675 18.1672 14.7118 18.1672 14.6438C18.1672 14.5757 18.1853 14.52 18.2074 14.52C18.2295 14.52 18.2476 14.4829 18.2476 14.4375C18.2476 14.3921 18.2657 14.355 18.2878 14.355C18.3099 14.355 18.328 14.2993 18.328 14.2313C18.328 14.1632 18.3461 14.1075 18.3682 14.1075C18.3903 14.1075 18.4084 14.0333 18.4084 13.9425C18.4084 13.8518 18.4264 13.7775 18.4486 13.7775C18.4707 13.7775 18.4887 13.6847 18.4887 13.5713C18.4887 13.4578 18.5068 13.365 18.5289 13.365C18.5524 13.365 18.5691 13.2275 18.5691 13.035C18.5691 12.8425 18.5859 12.705 18.6093 12.705C18.6328 12.705 18.6495 12.5675 18.6495 12.375C18.6495 12.1825 18.6328 12.045 18.6093 12.045C18.5859 12.045 18.5691 11.9075 18.5691 11.715C18.5691 11.5225 18.5524 11.385 18.5289 11.385C18.5068 11.385 18.4887 11.2922 18.4887 11.1788C18.4887 11.0653 18.4707 10.9725 18.4486 10.9725C18.4264 10.9725 18.4084 10.8983 18.4084 10.8075C18.4084 10.7168 18.3903 10.6425 18.3682 10.6425C18.3461 10.6425 18.328 10.5868 18.328 10.5188C18.328 10.4507 18.3099 10.395 18.2878 10.395C18.2657 10.395 18.2476 10.3579 18.2476 10.3125C18.2476 10.2671 18.2295 10.23 18.2074 10.23C18.1853 10.23 18.1672 10.1743 18.1672 10.1063C18.1672 10.0382 18.1491 9.9825 18.127 9.9825C18.1049 9.9825 18.0868 9.94538 18.0868 9.9C18.0868 9.85463 18.0687 9.8175 18.0466 9.8175C18.0245 9.8175 18.0064 9.78038 18.0064 9.735C18.0064 9.68963 17.9883 9.6525 17.9662 9.6525C17.9441 9.6525 17.926 9.61538 17.926 9.57C17.926 9.52463 17.908 9.4875 17.8859 9.4875C17.8637 9.4875 17.8457 9.45446 17.8457 9.41412C17.8457 9.37373 17.8095 9.31396 17.7653 9.28125C17.7211 9.24854 17.6849 9.19285 17.6849 9.1575C17.6849 9.12215 17.6487 9.06646 17.6045 9.03375C17.5603 9.00104 17.5241 8.94911 17.5241 8.91829C17.5241 8.88748 17.4518 8.79095 17.3633 8.70375C17.2749 8.61655 17.2026 8.52489 17.2026 8.50006C17.2026 8.44119 16.6143 7.8375 16.557 7.8375C16.5328 7.8375 16.4435 7.76325 16.3585 7.6725C16.2736 7.58175 16.1795 7.5075 16.1495 7.5075C16.1195 7.5075 16.0688 7.47038 16.037 7.425C16.0051 7.37963 15.9508 7.3425 15.9164 7.3425C15.882 7.3425 15.8277 7.30538 15.7958 7.26C15.7639 7.21463 15.7057 7.1775 15.6664 7.1775C15.627 7.1775 15.5949 7.15894 15.5949 7.13625C15.5949 7.11356 15.5587 7.095 15.5145 7.095C15.4703 7.095 15.4341 7.07644 15.4341 7.05375C15.4341 7.03106 15.3979 7.0125 15.3537 7.0125C15.3095 7.0125 15.2733 6.99394 15.2733 6.97125C15.2733 6.94856 15.2371 6.93 15.1929 6.93C15.1487 6.93 15.1125 6.91144 15.1125 6.88875C15.1125 6.86606 15.0764 6.8475 15.0322 6.8475C14.9879 6.8475 14.9518 6.82894 14.9518 6.80625C14.9518 6.78356 14.9156 6.765 14.8714 6.765C14.8272 6.765 14.791 6.74644 14.791 6.72375C14.791 6.70106 14.7367 6.6825 14.6704 6.6825C14.6041 6.6825 14.5498 6.66394 14.5498 6.64125C14.5498 6.61856 14.4956 6.6 14.4293 6.6C14.3629 6.6 14.3087 6.58144 14.3087 6.55875C14.3087 6.53606 14.2363 6.5175 14.1479 6.5175C14.0595 6.5175 13.9871 6.49894 13.9871 6.47625C13.9871 6.45356 13.8967 6.435 13.7862 6.435C13.6756 6.435 13.5852 6.41644 13.5852 6.39375C13.5852 6.36929 13.4378 6.3525 13.2235 6.3525C13.0091 6.3525 12.8617 6.33571 12.8617 6.31125C12.8617 6.2872 12.7278 6.27 12.5402 6.27C12.3526 6.27 12.2186 6.2872 12.2186 6.31125ZM12.701 8.29125C12.701 8.31571 12.8484 8.3325 13.0627 8.3325C13.277 8.3325 13.4244 8.34929 13.4244 8.37375C13.4244 8.39644 13.4968 8.415 13.5852 8.415C13.6736 8.415 13.746 8.43356 13.746 8.45625C13.746 8.47894 13.8002 8.4975 13.8666 8.4975C13.9329 8.4975 13.9871 8.51606 13.9871 8.53875C13.9871 8.56144 14.0414 8.58 14.1077 8.58C14.174 8.58 14.2283 8.59856 14.2283 8.62125C14.2283 8.64394 14.2645 8.6625 14.3087 8.6625C14.3529 8.6625 14.3891 8.68106 14.3891 8.70375C14.3891 8.72644 14.4252 8.745 14.4695 8.745C14.5137 8.745 14.5498 8.76356 14.5498 8.78625C14.5498 8.80894 14.582 8.8275 14.6213 8.8275C14.6607 8.8275 14.7189 8.86462 14.7508 8.91C14.7827 8.95538 14.8369 8.9925 14.8714 8.9925C14.9058 8.9925 14.9601 9.02962 14.992 9.075C15.0238 9.12038 15.0733 9.1575 15.1018 9.1575C15.1696 9.1575 15.9164 9.92397 15.9164 9.99347C15.9164 10.0228 15.9526 10.0735 15.9968 10.1063C16.041 10.139 16.0772 10.1946 16.0772 10.23C16.0772 10.2654 16.1133 10.321 16.1576 10.3538C16.2018 10.3865 16.2379 10.4462 16.2379 10.4866C16.2379 10.527 16.256 10.56 16.2781 10.56C16.3002 10.56 16.3183 10.5971 16.3183 10.6425C16.3183 10.6879 16.3364 10.725 16.3585 10.725C16.3806 10.725 16.3987 10.7807 16.3987 10.8488C16.3987 10.9168 16.4168 10.9725 16.4389 10.9725C16.461 10.9725 16.4791 11.0282 16.4791 11.0963C16.4791 11.1643 16.4972 11.22 16.5193 11.22C16.5414 11.22 16.5595 11.2943 16.5595 11.385C16.5595 11.4758 16.5776 11.55 16.5997 11.55C16.6231 11.55 16.6399 11.6875 16.6399 11.88C16.6399 12.0725 16.6566 12.21 16.6801 12.21C16.7022 12.21 16.7203 12.2657 16.7203 12.3338C16.7203 12.4018 16.7022 12.4575 16.6801 12.4575C16.6562 12.4575 16.6399 12.6088 16.6399 12.8288C16.6399 13.0487 16.6235 13.2 16.5997 13.2C16.5776 13.2 16.5595 13.2557 16.5595 13.3238C16.5595 13.3918 16.5414 13.4475 16.5193 13.4475C16.4972 13.4475 16.4791 13.5032 16.4791 13.5713C16.4791 13.6393 16.461 13.695 16.4389 13.695C16.4168 13.695 16.3987 13.7507 16.3987 13.8188C16.3987 13.8868 16.3806 13.9425 16.3585 13.9425C16.3364 13.9425 16.3183 13.9796 16.3183 14.025C16.3183 14.0704 16.3002 14.1075 16.2781 14.1075C16.256 14.1075 16.2379 14.1405 16.2379 14.1809C16.2379 14.2213 16.2018 14.281 16.1576 14.3138C16.1133 14.3465 16.0772 14.4062 16.0772 14.4466C16.0772 14.487 16.0591 14.52 16.037 14.52C16.0149 14.52 15.9968 14.5489 15.9968 14.5841C15.9968 14.6195 15.8883 14.7576 15.7556 14.8913C15.623 15.0249 15.5145 15.163 15.5145 15.1984C15.5145 15.2336 15.4859 15.2625 15.451 15.2625C15.4161 15.2625 15.3181 15.3368 15.2331 15.4275C15.1482 15.5183 15.0541 15.5925 15.0241 15.5925C14.9941 15.5925 14.9434 15.6296 14.9116 15.675C14.8797 15.7204 14.8254 15.7575 14.791 15.7575C14.7566 15.7575 14.7023 15.7946 14.6704 15.84C14.6385 15.8854 14.5803 15.9225 14.541 15.9225C14.5016 15.9225 14.4695 15.9411 14.4695 15.9638C14.4695 15.9864 14.4333 16.005 14.3891 16.005C14.3449 16.005 14.3087 16.0236 14.3087 16.0463C14.3087 16.0689 14.2544 16.0875 14.1881 16.0875C14.1218 16.0875 14.0675 16.1061 14.0675 16.1287C14.0675 16.1514 14.0314 16.17 13.9871 16.17C13.9429 16.17 13.9068 16.1886 13.9068 16.2113C13.9068 16.2339 13.8344 16.2525 13.746 16.2525C13.6576 16.2525 13.5852 16.2711 13.5852 16.2938C13.5852 16.3164 13.4948 16.335 13.3842 16.335C13.2737 16.335 13.1833 16.3536 13.1833 16.3763C13.1833 16.402 12.9421 16.4175 12.5402 16.4175C12.1383 16.4175 11.8971 16.402 11.8971 16.3763C11.8971 16.3536 11.8067 16.335 11.6961 16.335C11.5856 16.335 11.4952 16.3164 11.4952 16.2938C11.4952 16.2711 11.4228 16.2525 11.3344 16.2525C11.246 16.2525 11.1736 16.2339 11.1736 16.2113C11.1736 16.1886 11.1194 16.17 11.0531 16.17C10.9867 16.17 10.9325 16.1514 10.9325 16.1287C10.9325 16.1061 10.8963 16.0875 10.8521 16.0875C10.8079 16.0875 10.7717 16.0689 10.7717 16.0463C10.7717 16.0236 10.7355 16.005 10.6913 16.005C10.6471 16.005 10.6109 15.9864 10.6109 15.9638C10.6109 15.9411 10.5748 15.9225 10.5305 15.9225C10.4863 15.9225 10.4502 15.9039 10.4502 15.8813C10.4502 15.8586 10.418 15.84 10.3787 15.84C10.3393 15.84 10.2811 15.8029 10.2492 15.7575C10.2173 15.7121 10.1667 15.675 10.1367 15.675C10.1067 15.675 10.0126 15.6008 9.92765 15.51C9.84268 15.4193 9.75321 15.345 9.72878 15.345C9.6705 15.345 9.32476 14.9895 9.32476 14.9295C9.32476 14.904 9.2705 14.8311 9.20418 14.7675C9.13786 14.7039 9.0836 14.6263 9.0836 14.5951C9.0836 14.5638 9.04743 14.5115 9.00321 14.4788C8.959 14.446 8.92283 14.3863 8.92283 14.3459C8.92283 14.3055 8.90474 14.2725 8.88264 14.2725C8.86053 14.2725 8.84244 14.2354 8.84244 14.19C8.84244 14.1446 8.82436 14.1075 8.80225 14.1075C8.78014 14.1075 8.76206 14.0704 8.76206 14.025C8.76206 13.9796 8.74397 13.9425 8.72186 13.9425C8.69976 13.9425 8.68167 13.9054 8.68167 13.86C8.68167 13.8146 8.66358 13.7775 8.64148 13.7775C8.61937 13.7775 8.60129 13.7218 8.60129 13.6538C8.60129 13.5857 8.5832 13.53 8.56109 13.53C8.53899 13.53 8.5209 13.4558 8.5209 13.365C8.5209 13.2743 8.50281 13.2 8.48071 13.2C8.45727 13.2 8.44051 13.0625 8.44051 12.87C8.44051 12.6775 8.42375 12.54 8.40032 12.54C8.37821 12.54 8.36013 12.4658 8.36013 12.375C8.36013 12.2843 8.37821 12.21 8.40032 12.21C8.42375 12.21 8.44051 12.0725 8.44051 11.88C8.44051 11.6875 8.45727 11.55 8.48071 11.55C8.50281 11.55 8.5209 11.4758 8.5209 11.385C8.5209 11.2943 8.53899 11.22 8.56109 11.22C8.5832 11.22 8.60129 11.1643 8.60129 11.0963C8.60129 11.0282 8.61937 10.9725 8.64148 10.9725C8.66358 10.9725 8.68167 10.9354 8.68167 10.89C8.68167 10.8446 8.69976 10.8075 8.72186 10.8075C8.74397 10.8075 8.76206 10.7704 8.76206 10.725C8.76206 10.6796 8.78014 10.6425 8.80225 10.6425C8.82436 10.6425 8.84244 10.6054 8.84244 10.56C8.84244 10.5146 8.86053 10.4775 8.88264 10.4775C8.90474 10.4775 8.92283 10.4404 8.92283 10.395C8.92283 10.3496 8.94092 10.3125 8.96302 10.3125C8.98513 10.3125 9.00321 10.2828 9.00321 10.2465C9.00321 10.2103 9.05748 10.1286 9.12379 10.065C9.19011 10.0014 9.24437 9.92871 9.24437 9.90342C9.24437 9.84341 9.83232 9.24 9.8908 9.24C9.91543 9.24 9.98629 9.18431 10.0482 9.11625C10.1102 9.04819 10.1898 8.9925 10.2251 8.9925C10.2605 8.9925 10.2894 8.97394 10.2894 8.95125C10.2894 8.92856 10.3216 8.91 10.3609 8.91C10.4002 8.91 10.4585 8.87288 10.4904 8.8275C10.5222 8.78213 10.5805 8.745 10.6198 8.745C10.6591 8.745 10.6913 8.72644 10.6913 8.70375C10.6913 8.68106 10.7456 8.6625 10.8119 8.6625C10.8782 8.6625 10.9325 8.64394 10.9325 8.62125C10.9325 8.59856 10.9686 8.58 11.0129 8.58C11.0571 8.58 11.0932 8.56144 11.0932 8.53875C11.0932 8.51606 11.1475 8.4975 11.2138 8.4975C11.2801 8.4975 11.3344 8.47894 11.3344 8.45625C11.3344 8.43356 11.4068 8.415 11.4952 8.415C11.5836 8.415 11.6559 8.39644 11.6559 8.37375C11.6559 8.34929 11.8033 8.3325 12.0177 8.3325C12.232 8.3325 12.3794 8.31571 12.3794 8.29125C12.3794 8.26856 12.4518 8.25 12.5402 8.25C12.6286 8.25 12.701 8.26856 12.701 8.29125Z" fill="#CE1180"/>
</svg>
