<svg width="28" height="29" viewBox="0 0 28 29" fill="none" xmlns="http://www.w3.org/2000/svg">
<circle cx="13.8001" cy="15.051" r="6.27273" stroke="#CE1180" stroke-width="1.5"/>
<circle cx="22.1637" cy="6.68716" r="1.25455" fill="#CE1180"/>
<path fill-rule="evenodd" clip-rule="evenodd" d="M3.87404 1.90263C2.87207 2.50313 1.64555 3.74388 1.05131 4.75797C0.0263454 6.50639 0 6.75604 0 14.6329C0 22.5211 0.0250909 22.7569 1.05675 24.5171C1.67607 25.5738 2.85911 26.7568 3.91585 27.3762C5.67598 28.4078 5.91184 28.4329 13.8 28.4329C21.6882 28.4329 21.924 28.4078 23.6841 27.3762C24.7409 26.7568 25.9239 25.5738 26.5433 24.5171C27.5749 22.7569 27.6 22.5211 27.6 14.6329C27.6 6.74475 27.5749 6.5089 26.5433 4.74877C25.9239 3.69203 24.7409 2.50899 23.6841 1.88966C21.9228 0.857171 21.694 0.832917 13.7632 0.83668C5.81816 0.840862 5.60782 0.863444 3.87404 1.90263ZM23.0326 3.03841C23.8088 3.56114 24.8718 4.62415 25.3945 5.4003C26.2995 6.74266 26.3455 7.1897 26.3455 14.6329C26.3455 22.0761 26.2995 22.5232 25.3945 23.8655C24.8718 24.6417 23.8088 25.7047 23.0326 26.2274C21.6903 27.1324 21.2432 27.1784 13.8 27.1784C6.35678 27.1784 5.90975 27.1324 4.56738 26.2274C3.79124 25.7047 2.72822 24.6417 2.20549 23.8655C1.30055 22.5232 1.25455 22.0761 1.25455 14.6329C1.25455 7.1897 1.30055 6.74266 2.20549 5.4003C2.72822 4.62415 3.79124 3.56114 4.56738 3.03841C5.90975 2.13346 6.35678 2.08746 13.8 2.08746C21.2432 2.08746 21.6903 2.13346 23.0326 3.03841Z" fill="#CE1180"/>
</svg>
