<svg width="22" height="29" viewBox="0 0 22 29" fill="none" xmlns="http://www.w3.org/2000/svg">
<path fill-rule="evenodd" clip-rule="evenodd" d="M2.08804 0.274419C2.07917 0.314441 2.01983 0.335642 1.95624 0.321543C1.89257 0.307428 1.65543 0.408537 1.42927 0.546278L1.01798 0.796584L0.751366 1.99921C0.584382 2.75243 0.513115 3.20805 0.560565 3.21857C0.604756 3.22837 0.582596 3.47791 0.507307 3.81751C0.432019 4.15712 0.409859 4.40666 0.45405 4.41646C0.497331 4.42605 0.481453 4.65156 0.416924 4.94263C0.352396 5.2337 0.336517 5.45921 0.379798 5.46881C0.421488 5.47805 0.4193 5.64934 0.374937 5.84945C0.330574 6.04956 0.328386 6.22085 0.370076 6.23009C0.411765 6.23933 0.416837 6.37788 0.381347 6.53796C0.345856 6.69805 0.350928 6.8366 0.392617 6.84584C0.434307 6.85508 0.439379 6.99362 0.403888 7.15371C0.368397 7.3138 0.373469 7.45234 0.415159 7.46159C0.456849 7.47083 0.46918 7.57663 0.442562 7.69669C0.415944 7.81676 0.428275 7.92256 0.469965 7.9318C0.511654 7.94104 0.523986 8.04684 0.497368 8.16691C0.47075 8.28697 0.483081 8.39277 0.524771 8.40201C0.56646 8.41125 0.578792 8.51705 0.552174 8.63712C0.525556 8.75719 0.537887 8.86298 0.579576 8.87223C0.621266 8.88147 0.633597 8.98727 0.606979 9.10733C0.580361 9.2274 0.592693 9.3332 0.634382 9.34244C0.676072 9.35168 0.695663 9.42473 0.677917 9.50478C0.660172 9.58482 0.679763 9.65787 0.721453 9.66712C0.763142 9.67636 0.775474 9.78216 0.748856 9.90222C0.722237 10.0223 0.734569 10.1281 0.776258 10.1373C0.817948 10.1466 0.837539 10.2196 0.819793 10.2997C0.802048 10.3797 0.821639 10.4528 0.863329 10.462C0.905018 10.4712 0.91735 10.577 0.890731 10.6971C0.864114 10.8172 0.876445 10.923 0.918134 10.9322C0.959824 10.9415 0.979415 11.0145 0.96167 11.0946C0.943924 11.1746 0.963515 11.2477 1.0052 11.2569C1.04689 11.2661 1.06649 11.3392 1.04874 11.4192C1.03099 11.4993 1.05059 11.5723 1.09227 11.5816C1.13396 11.5908 1.15356 11.6639 1.13581 11.7439C1.11806 11.824 1.13766 11.897 1.17934 11.9063C1.22103 11.9155 1.24063 11.9885 1.22288 12.0686C1.20513 12.1486 1.22473 12.2217 1.26641 12.2309C1.3081 12.2402 1.3277 12.3132 1.30995 12.3933C1.2922 12.4733 1.3118 12.5464 1.35349 12.5556C1.39517 12.5649 1.41636 12.6307 1.40059 12.7019C1.38479 12.7731 1.42964 12.8937 1.50022 12.9699C1.57081 13.0461 1.61565 13.1666 1.59986 13.2379C1.58408 13.309 1.60527 13.3749 1.64696 13.3841C1.68865 13.3934 1.70984 13.4592 1.69406 13.5304C1.67827 13.6016 1.72311 13.7222 1.7937 13.7984C1.86428 13.8745 1.91072 13.9879 1.8969 14.0503C1.88307 14.1126 1.92952 14.226 2.0001 14.3022C2.07069 14.3784 2.11713 14.4917 2.1033 14.5541C2.08948 14.6165 2.13592 14.7298 2.20651 14.806C2.27709 14.8822 2.32484 14.9897 2.31261 15.0448C2.3004 15.0999 2.37237 15.2595 2.47258 15.3994C2.57279 15.5393 2.64608 15.6929 2.63545 15.7409C2.62482 15.7888 2.69811 15.9425 2.79832 16.0824C2.89853 16.2222 2.97206 16.3748 2.96174 16.4214C2.95141 16.4679 3.07816 16.7033 3.24339 16.9445C3.40862 17.1856 3.536 17.4182 3.52645 17.4612C3.50378 17.5635 4.73579 19.413 4.84229 19.4366C4.88716 19.4465 5.05371 19.6552 5.21241 19.9003C5.37111 20.1455 5.54061 20.3548 5.58912 20.3656C5.63763 20.3763 5.75116 20.5046 5.84135 20.6505C5.93153 20.7965 6.0462 20.925 6.09615 20.936C6.1461 20.9471 6.26076 21.0756 6.35095 21.2216C6.44114 21.3675 6.56201 21.4974 6.61939 21.5101C6.67685 21.5228 6.75852 21.6097 6.80088 21.703C6.84325 21.7964 6.93106 21.8846 6.99602 21.899C7.06098 21.9134 7.14879 22.0016 7.19115 22.0949C7.23351 22.1883 7.32132 22.2765 7.38628 22.2909C7.45124 22.3053 7.53905 22.3934 7.58142 22.4868C7.62378 22.5802 7.71909 22.67 7.7933 22.6865C7.86743 22.7029 7.92089 22.7491 7.91202 22.7891C7.90315 22.8292 7.9566 22.8754 8.03073 22.8918C8.10494 22.9083 8.20025 22.9981 8.24262 23.0915C8.28498 23.1848 8.3803 23.2747 8.4545 23.2911C8.52863 23.3076 8.58209 23.3538 8.57322 23.3938C8.56435 23.4338 8.62531 23.4817 8.70869 23.5002C8.79206 23.5186 8.85302 23.5665 8.84415 23.6065C8.83528 23.6466 8.89624 23.6944 8.97962 23.7129C9.063 23.7314 9.12396 23.7793 9.11509 23.8193C9.10621 23.8593 9.16717 23.9072 9.25055 23.9257C9.33393 23.9442 9.39489 23.992 9.38602 24.032C9.37715 24.0721 9.43811 24.1199 9.52148 24.1384C9.60486 24.1569 9.66582 24.2048 9.65695 24.2448C9.64808 24.2848 9.70904 24.3327 9.79242 24.3512C9.8758 24.3697 9.93676 24.4175 9.92788 24.4575C9.91901 24.4976 10.0141 24.553 10.1392 24.5807C10.2642 24.6085 10.3593 24.6639 10.3504 24.7039C10.3415 24.7439 10.4025 24.7918 10.4859 24.8103C10.5693 24.8288 10.6302 24.8766 10.6213 24.9167C10.6125 24.9567 10.7075 25.0121 10.8326 25.0398C10.9577 25.0676 11.0528 25.123 11.0439 25.163C11.035 25.203 11.096 25.2509 11.1793 25.2694C11.2627 25.2879 11.3237 25.3358 11.3148 25.3758C11.3059 25.4158 11.401 25.4712 11.5261 25.499C11.6511 25.5267 11.7462 25.5821 11.7373 25.6221C11.7285 25.6622 11.8235 25.7176 11.9486 25.7453C12.0737 25.773 12.1688 25.8285 12.1599 25.8685C12.151 25.9085 12.2461 25.9639 12.3711 25.9917C12.4962 26.0194 12.5913 26.0748 12.5824 26.1149C12.5735 26.1549 12.6686 26.2103 12.7937 26.238C12.9187 26.2658 13.0138 26.3212 13.0049 26.3612C12.9961 26.4012 13.1252 26.4642 13.292 26.5012C13.4588 26.5382 13.5879 26.6012 13.5791 26.6412C13.5702 26.6812 13.6994 26.7442 13.8661 26.7812C14.0329 26.8181 14.1621 26.8811 14.1532 26.9212C14.1443 26.9612 14.3076 27.0317 14.5161 27.0779C14.7245 27.1242 14.8878 27.1947 14.8789 27.2347C14.8697 27.2763 15.0902 27.3579 15.3934 27.4251C15.6966 27.4923 15.9171 27.574 15.9079 27.6155C15.8985 27.658 16.1444 27.7443 16.4981 27.8227C16.8519 27.9012 17.0978 27.9875 17.0884 28.0299C17.0783 28.0755 17.5403 28.2065 18.3249 28.3804L19.5776 28.6581L19.9889 28.4077C20.2151 28.2701 20.4112 28.1074 20.4248 28.0463C20.4383 27.9853 20.4835 27.9428 20.5252 27.9521C20.5744 27.963 20.8107 27.0229 21.1979 25.2765C21.5851 23.5301 21.7682 22.5782 21.719 22.5673C21.6773 22.558 21.6577 22.485 21.6755 22.4049C21.6932 22.3249 21.6736 22.2519 21.6319 22.2426C21.5902 22.2334 21.5706 22.1603 21.5884 22.0803C21.6086 21.9892 21.5701 21.9235 21.4858 21.9048C21.4116 21.8884 21.3163 21.7985 21.2739 21.7052C21.2051 21.5535 21.1099 21.5161 20.3798 21.3543C19.8857 21.2447 19.5692 21.1444 19.5789 21.1004C19.5886 21.0567 19.2919 20.9604 18.8371 20.8596C18.3823 20.7587 18.0855 20.6624 18.0952 20.6188C18.1041 20.5787 17.9749 20.5157 17.8081 20.4788C17.6414 20.4418 17.5122 20.3788 17.5211 20.3388C17.5299 20.2988 17.4008 20.2358 17.234 20.1988C17.0672 20.1618 16.9381 20.0988 16.9469 20.0588C16.9558 20.0188 16.8266 19.9558 16.6599 19.9188C16.4931 19.8819 16.3639 19.8189 16.3728 19.7788C16.3817 19.7388 16.2525 19.6758 16.0857 19.6389C15.919 19.6019 15.7898 19.5389 15.7987 19.4989C15.8076 19.4589 15.7125 19.4034 15.5874 19.3757C15.4623 19.348 15.3528 19.358 15.3439 19.3981C15.335 19.4381 15.2419 19.4518 15.137 19.4285C14.9896 19.3959 14.5073 19.6539 13.0182 20.562C11.2391 21.6471 11.0697 21.7333 10.8236 21.6787C10.677 21.6462 10.5643 21.5869 10.5732 21.5469C10.582 21.5068 10.5286 21.4606 10.4545 21.4442C10.3802 21.4277 10.2849 21.3379 10.2426 21.2445C10.2002 21.1512 10.1049 21.0613 10.0307 21.0449C9.95655 21.0284 9.9031 20.9822 9.91197 20.9422C9.92084 20.9022 9.86739 20.856 9.79325 20.8395C9.71905 20.8231 9.62373 20.7332 9.58137 20.6399C9.53901 20.5465 9.4512 20.4583 9.38624 20.4439C9.32127 20.4295 9.23346 20.3414 9.1911 20.248C9.14874 20.1546 9.06093 20.0664 8.99597 20.052C8.93101 20.0376 8.8432 19.9495 8.80083 19.8561C8.75847 19.7627 8.6768 19.6759 8.61934 19.6632C8.56196 19.6504 8.44109 19.5206 8.3509 19.3746C8.26071 19.2287 8.14749 19.1005 8.09936 19.0898C8.0513 19.0792 7.85457 18.8294 7.6623 18.5349C7.47002 18.2403 7.27632 17.9912 7.23183 17.9814C7.18733 17.9715 6.86932 17.5407 6.52509 17.024C6.18094 16.5073 5.90705 16.0496 5.91652 16.0069C5.92599 15.9641 5.77183 15.691 5.57394 15.3999C5.37606 15.1087 5.22254 14.8327 5.23277 14.7865C5.24301 14.7403 5.16941 14.588 5.0692 14.4482C4.96899 14.3083 4.89702 14.1487 4.90924 14.0936C4.92146 14.0384 4.87372 13.931 4.80313 13.8548C4.73254 13.7786 4.6861 13.6652 4.69993 13.6029C4.71375 13.5405 4.66731 13.4272 4.59673 13.351C4.52614 13.2748 4.4797 13.1614 4.49352 13.0991C4.50735 13.0367 4.46091 12.9233 4.39032 12.8471C4.31973 12.771 4.27489 12.6504 4.29068 12.5792C4.30646 12.508 4.28527 12.4421 4.24358 12.4329C4.20189 12.4237 4.18071 12.3578 4.19648 12.2866C4.21228 12.2154 4.16743 12.0948 4.09685 12.0186C4.02626 11.9425 3.98142 11.8219 3.99721 11.7507C4.01299 11.6795 3.9918 11.6136 3.95011 11.6044C3.90842 11.5952 3.89985 11.4724 3.93105 11.3317C3.98341 11.0955 4.13677 10.9852 5.9178 9.90299C7.40841 8.99722 7.85705 8.68855 7.88841 8.54709C7.91074 8.44638 7.96313 8.37149 8.00482 8.38074C8.04651 8.38998 8.1024 8.2993 8.12901 8.17924C8.15563 8.05917 8.1433 7.95337 8.10161 7.94413C8.05992 7.93489 8.05485 7.79634 8.09034 7.63626C8.12583 7.47617 8.12076 7.33763 8.07907 7.32838C8.03738 7.31914 8.03231 7.1806 8.0678 7.02051C8.10329 6.86042 8.09822 6.72188 8.05653 6.71264C8.01484 6.70339 8.00977 6.56485 8.04526 6.40476C8.08075 6.24467 8.07568 6.10613 8.03399 6.09689C7.9923 6.08765 7.98722 5.9491 8.02272 5.78901C8.05821 5.62893 8.05313 5.49038 8.01144 5.48114C7.96596 5.47106 8.00017 5.17327 8.09697 4.73666C8.19376 4.30006 8.22797 4.00227 8.18249 3.99218C8.13663 3.98202 8.17541 3.66539 8.28058 3.19102C8.43596 2.49012 8.4408 2.39187 8.32613 2.26812C8.25554 2.19193 8.2107 2.07137 8.22649 2.00013C8.24443 1.91921 8.19842 1.85809 8.10359 1.83707C8.02021 1.81858 7.95925 1.77071 7.96813 1.73069C7.977 1.69067 7.91604 1.6428 7.83266 1.62431C7.74928 1.60583 7.68832 1.55796 7.69719 1.51794C7.70766 1.47071 6.72793 1.22671 4.90875 0.823411C3.08956 0.420108 2.09851 0.227193 2.08804 0.274419Z" fill="#CE1180"/>
</svg>
