<svg width="129" height="30" viewBox="0 0 129 30" fill="none" xmlns="http://www.w3.org/2000/svg">
<g filter="url(#filter0_d)">
<mask id="path-1-outside-1" maskUnits="userSpaceOnUse" x="0" y="0" width="127" height="27" fill="black">
<rect fill="white" width="127" height="27"/>
<path fill-rule="evenodd" clip-rule="evenodd" d="M11 1H3.5L1 26H13L22.5 1H15L8.5 19.5L11 1ZM38 1H25.5L16 26H24L25.5 20.5H28.5L27.5 26H35.5L36.5 20.5L38 1ZM43.5 1H51L46.5 19H54L52.5 26H37L43.5 1ZM70.5 1H62L53.5 26H61L64.5 14L63.5 26H70L75 14L72 26H79.5L81 20.5L83.5 1H75L70.5 10.5V1ZM90.5 1H103L101.5 20.5L100 26H92.5L94 20.5H90.5L88.5 26H80.5L90.5 1ZM115.5 1H108L107 5L107.5 12.5L103 20.5L101 26H109.5L113.5 16L113 26H121L122 20.5L121 12.5L125.5 5L126.5 1H119L115 10L115.5 1ZM94.5 14.5H92.5L95.5 6.5L94.5 14.5ZM29 14.5L30 6.5L27.5 14.5H29Z"/>
</mask>
<path fill-rule="evenodd" clip-rule="evenodd" d="M11 1H3.5L1 26H13L22.5 1H15L8.5 19.5L11 1ZM38 1H25.5L16 26H24L25.5 20.5H28.5L27.5 26H35.5L36.5 20.5L38 1ZM43.5 1H51L46.5 19H54L52.5 26H37L43.5 1ZM70.5 1H62L53.5 26H61L64.5 14L63.5 26H70L75 14L72 26H79.5L81 20.5L83.5 1H75L70.5 10.5V1ZM90.5 1H103L101.5 20.5L100 26H92.5L94 20.5H90.5L88.5 26H80.5L90.5 1ZM115.5 1H108L107 5L107.5 12.5L103 20.5L101 26H109.5L113.5 16L113 26H121L122 20.5L121 12.5L125.5 5L126.5 1H119L115 10L115.5 1ZM94.5 14.5H92.5L95.5 6.5L94.5 14.5ZM29 14.5L30 6.5L27.5 14.5H29Z" fill="white"/>
<path d="M30 6.5L30.0499 6.50383C30.0518 6.47848 30.0344 6.4557 30.0094 6.4509C29.9845 6.4461 29.9599 6.46081 29.9523 6.48509L30 6.5ZM29.5 10.4999L29.5488 10.5121L29.5495 10.5072L29.5 10.4999ZM29.4515 10.4878C29.4448 10.5146 29.4611 10.5417 29.4879 10.5484C29.5147 10.5551 29.5418 10.5388 29.5485 10.512L29.4515 10.4878ZM29.5496 10.506C29.553 10.4786 29.5334 10.4537 29.506 10.4504C29.4786 10.447 29.4537 10.4666 29.4504 10.494L29.5496 10.506ZM29.4504 10.4941C29.447 10.5215 29.4666 10.5464 29.494 10.5497C29.5214 10.5531 29.5463 10.5335 29.5496 10.5061L29.4504 10.4941ZM27.4523 14.4851C27.444 14.5114 27.4587 14.5395 27.4851 14.5477C27.5114 14.556 27.5395 14.5413 27.5477 14.5149L27.4523 14.4851ZM92.4532 14.4824C92.4435 14.5083 92.4566 14.5371 92.4824 14.5468C92.5083 14.5565 92.5371 14.5434 92.5468 14.5176L92.4532 14.4824ZM95.5468 6.51756C95.5565 6.4917 95.5434 6.46288 95.5176 6.45318C95.4917 6.44349 95.4629 6.45659 95.4532 6.48244L95.5468 6.51756ZM29.9501 6.49617C29.8527 7.76328 29.6518 9.12684 29.4506 10.4926L29.5495 10.5072C29.7506 9.1422 29.9521 7.77506 30.0499 6.50383L29.9501 6.49617ZM29.4515 10.4878L29.4515 10.4878L29.5485 10.512L29.5485 10.512L29.4515 10.4878ZM29.4504 10.494L29.4504 10.4941L29.5496 10.5061L29.5496 10.506L29.4504 10.494ZM27.5477 14.5149L30.0477 6.51491L29.9523 6.48509L27.4523 14.4851L27.5477 14.5149ZM92.5468 14.5176L95.5468 6.51756L95.4532 6.48244L92.4532 14.4824L92.5468 14.5176ZM3.5 1V0.9C3.44862 0.9 3.40561 0.938929 3.4005 0.99005L3.5 1ZM11 1L11.0991 1.01339C11.103 0.984795 11.0943 0.955922 11.0753 0.934194C11.0563 0.912466 11.0289 0.9 11 0.9V1ZM1 26L0.900496 25.99C0.897685 26.0182 0.906897 26.0462 0.925855 26.0671C0.944813 26.088 0.971747 26.1 1 26.1V26ZM13 26V26.1C13.0415 26.1 13.0787 26.0743 13.0935 26.0355L13 26ZM22.5 1L22.5935 1.03552C22.6052 1.00479 22.601 0.970282 22.5823 0.943221C22.5637 0.916159 22.5329 0.9 22.5 0.9V1ZM15 1V0.9C14.9575 0.9 14.9197 0.926801 14.9057 0.966851L15 1ZM8.5 19.5L8.4009 19.4866C8.39403 19.5374 8.42674 19.5852 8.47661 19.5972C8.52648 19.6092 8.57734 19.5815 8.59435 19.5331L8.5 19.5ZM25.5 1V0.9C25.4585 0.9 25.4213 0.925662 25.4065 0.964478L25.5 1ZM38 1L38.0997 1.00767C38.1018 0.979897 38.0923 0.952492 38.0734 0.932055C38.0544 0.911618 38.0279 0.9 38 0.9V1ZM16 26L15.9065 25.9645C15.8948 25.9952 15.899 26.0297 15.9177 26.0568C15.9363 26.0838 15.9671 26.1 16 26.1V26ZM24 26V26.1C24.0451 26.1 24.0846 26.0698 24.0965 26.0263L24 26ZM25.5 20.5V20.4C25.4549 20.4 25.4154 20.4302 25.4035 20.4737L25.5 20.5ZM28.5 20.5L28.5984 20.5179C28.6037 20.4887 28.5958 20.4587 28.5768 20.4359C28.5578 20.4132 28.5297 20.4 28.5 20.4V20.5ZM27.5 26L27.4016 25.9821C27.3963 26.0113 27.4042 26.0413 27.4232 26.0641C27.4422 26.0868 27.4703 26.1 27.5 26.1V26ZM35.5 26V26.1C35.5483 26.1 35.5897 26.0654 35.5984 26.0179L35.5 26ZM36.5 20.5L36.5989 20.518L36.5997 20.5077L36.5 20.5ZM51 1L51.097 1.02425C51.1045 0.994379 51.0978 0.96273 51.0788 0.938459C51.0599 0.914187 51.0308 0.9 51 0.9V1ZM43.5 1V0.9C43.4545 0.9 43.4147 0.930765 43.4032 0.974837L43.5 1ZM46.5 19L46.403 18.9757C46.3955 19.0056 46.4022 19.0373 46.4212 19.0615C46.4401 19.0858 46.4692 19.1 46.5 19.1V19ZM54 19L54.0978 19.021C54.1041 18.9914 54.0968 18.9606 54.0778 18.9371C54.0588 18.9136 54.0302 18.9 54 18.9V19ZM52.5 26V26.1C52.5472 26.1 52.5879 26.0671 52.5978 26.021L52.5 26ZM37 26L36.9032 25.9748C36.8954 26.0048 36.902 26.0367 36.9209 26.0612C36.9398 26.0857 36.969 26.1 37 26.1V26ZM62 1V0.9C61.9572 0.9 61.9191 0.927266 61.9053 0.96781L62 1ZM70.5 1H70.6C70.6 0.944772 70.5552 0.9 70.5 0.9V1ZM53.5 26L53.4053 25.9678C53.3949 25.9983 53.3999 26.032 53.4187 26.0582C53.4375 26.0844 53.4678 26.1 53.5 26.1V26ZM61 26V26.1C61.0444 26.1 61.0836 26.0707 61.096 26.028L61 26ZM64.5 14L64.5997 14.0083C64.6039 13.9571 64.5687 13.911 64.5182 13.9017C64.4678 13.8923 64.4184 13.9227 64.404 13.972L64.5 14ZM63.5 26L63.4003 25.9917C63.398 26.0196 63.4075 26.0471 63.4264 26.0677C63.4453 26.0883 63.472 26.1 63.5 26.1V26ZM70 26V26.1C70.0404 26.1 70.0768 26.0757 70.0923 26.0385L70 26ZM75 14L75.097 14.0243C75.1097 13.9735 75.0811 13.9215 75.0314 13.9051C74.9818 13.8886 74.9278 13.9132 74.9077 13.9615L75 14ZM72 26L71.903 25.9757C71.8955 26.0056 71.9022 26.0373 71.9212 26.0615C71.9401 26.0858 71.9692 26.1 72 26.1V26ZM79.5 26V26.1C79.5451 26.1 79.5846 26.0698 79.5965 26.0263L79.5 26ZM81 20.5L81.0974 20.5266L81.0992 20.5127L81 20.5ZM83.5 1L83.5992 1.01272C83.6028 0.984212 83.5941 0.955512 83.5751 0.933938C83.5561 0.912364 83.5287 0.9 83.5 0.9V1ZM75 1V0.9C74.9614 0.9 74.9262 0.922267 74.9096 0.957191L75 1ZM70.5 10.5H70.4C70.4 10.5468 70.4324 10.5873 70.4781 10.5976C70.5237 10.6078 70.5703 10.5851 70.5904 10.5428L70.5 10.5ZM103 1L103.1 1.00767C103.102 0.979897 103.092 0.952492 103.073 0.932055C103.054 0.911618 103.028 0.9 103 0.9V1ZM90.5 1V0.9C90.4591 0.9 90.4223 0.924895 90.4072 0.962861L90.5 1ZM101.5 20.5L101.596 20.5263C101.598 20.5202 101.599 20.514 101.6 20.5077L101.5 20.5ZM100 26V26.1C100.045 26.1 100.085 26.0698 100.096 26.0263L100 26ZM92.5 26L92.4035 25.9737C92.3953 26.0038 92.4016 26.0359 92.4205 26.0607C92.4394 26.0855 92.4688 26.1 92.5 26.1V26ZM94 20.5L94.0965 20.5263C94.1047 20.4962 94.0984 20.4641 94.0795 20.4393C94.0606 20.4145 94.0312 20.4 94 20.4V20.5ZM90.5 20.5V20.4C90.4579 20.4 90.4204 20.4263 90.406 20.4658L90.5 20.5ZM88.5 26V26.1C88.5421 26.1 88.5796 26.0737 88.594 26.0342L88.5 26ZM80.5 26L80.4072 25.9629C80.3948 25.9937 80.3986 26.0286 80.4172 26.0561C80.4358 26.0835 80.4668 26.1 80.5 26.1V26ZM108 1V0.9C107.954 0.9 107.914 0.93123 107.903 0.975746L108 1ZM115.5 1L115.6 1.00555C115.601 0.978105 115.592 0.951245 115.573 0.931278C115.554 0.911312 115.527 0.9 115.5 0.9V1ZM107 5L106.903 4.97575C106.9 4.98584 106.9 4.99627 106.9 5.00665L107 5ZM107.5 12.5L107.587 12.549C107.597 12.5321 107.601 12.5127 107.6 12.4933L107.5 12.5ZM103 20.5L102.913 20.451C102.91 20.4557 102.908 20.4607 102.906 20.4658L103 20.5ZM101 26L100.906 25.9658C100.895 25.9965 100.899 26.0307 100.918 26.0574C100.937 26.0841 100.967 26.1 101 26.1V26ZM109.5 26V26.1C109.541 26.1 109.578 26.0751 109.593 26.0371L109.5 26ZM113.5 16L113.6 16.005C113.602 15.9562 113.569 15.9127 113.521 15.9023C113.474 15.8919 113.425 15.9175 113.407 15.9629L113.5 16ZM113 26L112.9 25.995C112.899 26.0224 112.909 26.0491 112.928 26.0689C112.946 26.0888 112.973 26.1 113 26.1V26ZM121 26V26.1C121.048 26.1 121.09 26.0654 121.098 26.0179L121 26ZM122 20.5L122.098 20.5179C122.1 20.5079 122.1 20.4977 122.099 20.4876L122 20.5ZM121 12.5L120.914 12.4486C120.903 12.4677 120.898 12.4902 120.901 12.5124L121 12.5ZM125.5 5L125.586 5.05145C125.591 5.04299 125.595 5.03382 125.597 5.02425L125.5 5ZM126.5 1L126.597 1.02425C126.604 0.994379 126.598 0.96273 126.579 0.938459C126.56 0.914187 126.531 0.9 126.5 0.9V1ZM119 1V0.9C118.96 0.9 118.925 0.923273 118.909 0.959386L119 1ZM115 10L114.9 9.99445C114.897 10.0427 114.93 10.0859 114.977 10.0972C115.023 10.1085 115.072 10.0847 115.091 10.0406L115 10ZM92.5 14.5L92.4064 14.4649C92.3949 14.4956 92.3991 14.53 92.4178 14.557C92.4365 14.5839 92.4672 14.6 92.5 14.6V14.5ZM94.5 14.5V14.6C94.5504 14.6 94.593 14.5624 94.5992 14.5124L94.5 14.5ZM95.5 6.5L95.5992 6.5124C95.6055 6.46209 95.5732 6.41503 95.5239 6.4029C95.4747 6.39077 95.4242 6.41741 95.4064 6.46489L95.5 6.5ZM30 6.5L30.0992 6.5124C30.1056 6.46103 30.0718 6.41325 30.0212 6.40227C29.9706 6.3913 29.92 6.42076 29.9046 6.47017L30 6.5ZM29 14.5V14.6C29.0504 14.6 29.093 14.5624 29.0992 14.5124L29 14.5ZM27.5 14.5L27.4046 14.4702C27.3951 14.5005 27.4006 14.5336 27.4194 14.5592C27.4383 14.5849 27.4682 14.6 27.5 14.6V14.5ZM3.5 1.1H11V0.9H3.5V1.1ZM1.0995 26.01L3.5995 1.00995L3.4005 0.99005L0.900496 25.99L1.0995 26.01ZM13 25.9H1V26.1H13V25.9ZM22.4065 0.964478L12.9065 25.9645L13.0935 26.0355L22.5935 1.03552L22.4065 0.964478ZM15 1.1H22.5V0.9H15V1.1ZM8.59435 19.5331L15.0943 1.03315L14.9057 0.966851L8.40565 19.4669L8.59435 19.5331ZM10.9009 0.986608L8.4009 19.4866L8.5991 19.5134L11.0991 1.01339L10.9009 0.986608ZM25.5 1.1H38V0.9H25.5V1.1ZM16.0935 26.0355L25.5935 1.03552L25.4065 0.964478L15.9065 25.9645L16.0935 26.0355ZM24 25.9H16V26.1H24V25.9ZM25.4035 20.4737L23.9035 25.9737L24.0965 26.0263L25.5965 20.5263L25.4035 20.4737ZM28.5 20.4H25.5V20.6H28.5V20.4ZM27.5984 26.0179L28.5984 20.5179L28.4016 20.4821L27.4016 25.9821L27.5984 26.0179ZM35.5 25.9H27.5V26.1H35.5V25.9ZM36.4016 20.4821L35.4016 25.9821L35.5984 26.0179L36.5984 20.5179L36.4016 20.4821ZM37.9003 0.99233L36.4003 20.4923L36.5997 20.5077L38.0997 1.00767L37.9003 0.99233ZM51 0.9H43.5V1.1H51V0.9ZM46.597 19.0243L51.097 1.02425L50.903 0.975746L46.403 18.9757L46.597 19.0243ZM54 18.9H46.5V19.1H54V18.9ZM52.5978 26.021L54.0978 19.021L53.9022 18.979L52.4022 25.979L52.5978 26.021ZM37 26.1H52.5V25.9H37V26.1ZM43.4032 0.974837L36.9032 25.9748L37.0968 26.0252L43.5968 1.02516L43.4032 0.974837ZM62 1.1H70.5V0.9H62V1.1ZM53.5947 26.0322L62.0947 1.03219L61.9053 0.96781L53.4053 25.9678L53.5947 26.0322ZM61 25.9H53.5V26.1H61V25.9ZM64.404 13.972L60.904 25.972L61.096 26.028L64.596 14.028L64.404 13.972ZM63.5997 26.0083L64.5997 14.0083L64.4003 13.9917L63.4003 25.9917L63.5997 26.0083ZM70 25.9H63.5V26.1H70V25.9ZM74.9077 13.9615L69.9077 25.9615L70.0923 26.0385L75.0923 14.0385L74.9077 13.9615ZM72.097 26.0243L75.097 14.0243L74.903 13.9757L71.903 25.9757L72.097 26.0243ZM79.5 25.9H72V26.1H79.5V25.9ZM80.9035 20.4737L79.4035 25.9737L79.5965 26.0263L81.0965 20.5263L80.9035 20.4737ZM83.4008 0.987284L80.9008 20.4873L81.0992 20.5127L83.5992 1.01272L83.4008 0.987284ZM75 1.1H83.5V0.9H75V1.1ZM70.5904 10.5428L75.0904 1.04281L74.9096 0.957191L70.4096 10.4572L70.5904 10.5428ZM70.4 1V10.5H70.6V1H70.4ZM103 0.9H90.5V1.1H103V0.9ZM101.6 20.5077L103.1 1.00767L102.9 0.99233L101.4 20.4923L101.6 20.5077ZM100.096 26.0263L101.596 20.5263L101.404 20.4737L99.9035 25.9737L100.096 26.0263ZM92.5 26.1H100V25.9H92.5V26.1ZM93.9035 20.4737L92.4035 25.9737L92.5965 26.0263L94.0965 20.5263L93.9035 20.4737ZM90.5 20.6H94V20.4H90.5V20.6ZM88.594 26.0342L90.594 20.5342L90.406 20.4658L88.406 25.9658L88.594 26.0342ZM80.5 26.1H88.5V25.9H80.5V26.1ZM90.4072 0.962861L80.4072 25.9629L80.5928 26.0371L90.5928 1.03714L90.4072 0.962861ZM108 1.1H115.5V0.9H108V1.1ZM107.097 5.02425L108.097 1.02425L107.903 0.975746L106.903 4.97575L107.097 5.02425ZM107.6 12.4933L107.1 4.99335L106.9 5.00665L107.4 12.5067L107.6 12.4933ZM103.087 20.549L107.587 12.549L107.413 12.451L102.913 20.451L103.087 20.549ZM101.094 26.0342L103.094 20.5342L102.906 20.4658L100.906 25.9658L101.094 26.0342ZM109.5 25.9H101V26.1H109.5V25.9ZM113.407 15.9629L109.407 25.9629L109.593 26.0371L113.593 16.0371L113.407 15.9629ZM113.1 26.005L113.6 16.005L113.4 15.995L112.9 25.995L113.1 26.005ZM121 25.9H113V26.1H121V25.9ZM121.902 20.4821L120.902 25.9821L121.098 26.0179L122.098 20.5179L121.902 20.4821ZM120.901 12.5124L121.901 20.5124L122.099 20.4876L121.099 12.4876L120.901 12.5124ZM125.414 4.94855L120.914 12.4486L121.086 12.5514L125.586 5.05145L125.414 4.94855ZM126.403 0.975746L125.403 4.97575L125.597 5.02425L126.597 1.02425L126.403 0.975746ZM119 1.1H126.5V0.9H119V1.1ZM115.091 10.0406L119.091 1.04061L118.909 0.959386L114.909 9.95939L115.091 10.0406ZM115.4 0.994453L114.9 9.99445L115.1 10.0055L115.6 1.00555L115.4 0.994453ZM92.5 14.6H94.5V14.4H92.5V14.6ZM95.4064 6.46489L92.4064 14.4649L92.5936 14.5351L95.5936 6.53511L95.4064 6.46489ZM94.5992 14.5124L95.5992 6.5124L95.4008 6.4876L94.4008 14.4876L94.5992 14.5124ZM29.9008 6.4876L28.9008 14.4876L29.0992 14.5124L30.0992 6.5124L29.9008 6.4876ZM27.5954 14.5298L30.0954 6.52983L29.9046 6.47017L27.4046 14.4702L27.5954 14.5298ZM29 14.4H27.5V14.6H29V14.4Z" fill="white" mask="url(#path-1-outside-1)"/>
</g>
<defs>
<filter id="filter0_d" x="0.900024" y="0.900024" width="127.7" height="28.2" filterUnits="userSpaceOnUse" color-interpolation-filters="sRGB">
<feFlood flood-opacity="0" result="BackgroundImageFix"/>
<feColorMatrix in="SourceAlpha" type="matrix" values="0 0 0 0 0 0 0 0 0 0 0 0 0 0 0 0 0 0 127 0"/>
<feOffset dx="1" dy="2"/>
<feGaussianBlur stdDeviation="0.5"/>
<feColorMatrix type="matrix" values="0 0 0 0 0.704167 0 0 0 0 0.704167 0 0 0 0 0.704167 0 0 0 1 0"/>
<feBlend mode="normal" in2="BackgroundImageFix" result="effect1_dropShadow"/>
<feBlend mode="normal" in="SourceGraphic" in2="effect1_dropShadow" result="shape"/>
</filter>
</defs>
</svg>
