<svg width="31" height="29" viewBox="0 0 31 29" fill="none" xmlns="http://www.w3.org/2000/svg">
<path fill-rule="evenodd" clip-rule="evenodd" d="M6.89346 0.274419C6.88459 0.314441 6.82525 0.335642 6.76166 0.321543C6.69799 0.307428 6.46085 0.408537 6.23469 0.546278L5.8234 0.796584L5.55679 1.99921C5.3898 2.75243 5.31853 3.20805 5.36599 3.21857C5.41018 3.22837 5.38802 3.47791 5.31273 3.81751C5.23744 4.15712 5.21528 4.40666 5.25947 4.41646C5.30275 4.42605 5.28687 4.65156 5.22234 4.94263C5.15782 5.2337 5.14194 5.45921 5.18522 5.46881C5.22691 5.47805 5.22472 5.64934 5.18036 5.84945C5.13599 6.04956 5.13381 6.22085 5.1755 6.23009C5.21719 6.23933 5.22226 6.37788 5.18677 6.53796C5.15128 6.69805 5.15635 6.8366 5.19804 6.84584C5.23973 6.85508 5.2448 6.99362 5.20931 7.15371C5.17382 7.3138 5.17889 7.45234 5.22058 7.46159C5.26227 7.47083 5.2746 7.57663 5.24798 7.69669C5.22136 7.81676 5.2337 7.92256 5.27538 7.9318C5.31707 7.94104 5.32941 8.04684 5.30279 8.16691C5.27617 8.28697 5.2885 8.39277 5.33019 8.40201C5.37188 8.41125 5.38421 8.51705 5.35759 8.63712C5.33098 8.75719 5.34331 8.86298 5.385 8.87223C5.42669 8.88147 5.43902 8.98727 5.4124 9.10733C5.38578 9.2274 5.39811 9.3332 5.4398 9.34244C5.48149 9.35168 5.50108 9.42473 5.48334 9.50478C5.46559 9.58482 5.48518 9.65787 5.52687 9.66712C5.56856 9.67636 5.58089 9.78216 5.55428 9.90222C5.52766 10.0223 5.53999 10.1281 5.58168 10.1373C5.62337 10.1466 5.64296 10.2196 5.62521 10.2997C5.60747 10.3797 5.62706 10.4528 5.66875 10.462C5.71044 10.4712 5.72277 10.577 5.69615 10.6971C5.66953 10.8172 5.68186 10.923 5.72355 10.9322C5.76524 10.9415 5.78483 11.0145 5.76709 11.0946C5.74934 11.1746 5.76893 11.2477 5.81062 11.2569C5.85231 11.2661 5.87191 11.3392 5.85416 11.4192C5.83641 11.4993 5.85601 11.5723 5.89769 11.5816C5.93938 11.5908 5.95898 11.6639 5.94123 11.7439C5.92348 11.824 5.94308 11.897 5.98476 11.9063C6.02645 11.9155 6.04605 11.9885 6.0283 12.0686C6.01055 12.1486 6.03015 12.2217 6.07183 12.2309C6.11352 12.2402 6.13312 12.3132 6.11537 12.3933C6.09762 12.4733 6.11722 12.5464 6.15891 12.5556C6.20059 12.5649 6.22178 12.6307 6.20601 12.7019C6.19021 12.7731 6.23506 12.8937 6.30564 12.9699C6.37623 13.0461 6.42107 13.1666 6.40528 13.2379C6.3895 13.309 6.41069 13.3749 6.45238 13.3841C6.49407 13.3934 6.51526 13.4592 6.49948 13.5304C6.48369 13.6016 6.52853 13.7222 6.59912 13.7984C6.6697 13.8745 6.71614 13.9879 6.70232 14.0503C6.68849 14.1126 6.73494 14.226 6.80552 14.3022C6.87611 14.3784 6.92255 14.4917 6.90872 14.5541C6.8949 14.6165 6.94134 14.7298 7.01193 14.806C7.08251 14.8822 7.13026 14.9897 7.11803 15.0448C7.10582 15.0999 7.17779 15.2595 7.278 15.3994C7.37821 15.5393 7.4515 15.6929 7.44087 15.7409C7.43024 15.7888 7.50353 15.9425 7.60374 16.0824C7.70395 16.2222 7.77748 16.3748 7.76716 16.4214C7.75683 16.4679 7.88358 16.7033 8.04881 16.9445C8.21404 17.1856 8.34142 17.4182 8.33187 17.4612C8.3092 17.5635 9.54121 19.413 9.64771 19.4366C9.69258 19.4465 9.85913 19.6552 10.0178 19.9003C10.1765 20.1455 10.346 20.3548 10.3945 20.3656C10.4431 20.3763 10.5566 20.5046 10.6468 20.6505C10.737 20.7965 10.8516 20.925 10.9016 20.936C10.9515 20.9471 11.0662 21.0756 11.1564 21.2216C11.2466 21.3675 11.3674 21.4974 11.4248 21.5101C11.4823 21.5228 11.5639 21.6097 11.6063 21.703C11.6487 21.7964 11.7365 21.8846 11.8014 21.899C11.8664 21.9134 11.9542 22.0016 11.9966 22.0949C12.0389 22.1883 12.1267 22.2765 12.1917 22.2909C12.2567 22.3053 12.3445 22.3934 12.3868 22.4868C12.4292 22.5802 12.5245 22.67 12.5987 22.6865C12.6729 22.7029 12.7263 22.7491 12.7174 22.7891C12.7086 22.8292 12.762 22.8754 12.8362 22.8918C12.9104 22.9083 13.0057 22.9981 13.048 23.0915C13.0904 23.1848 13.1857 23.2747 13.2599 23.2911C13.3341 23.3076 13.3875 23.3538 13.3786 23.3938C13.3698 23.4338 13.4307 23.4817 13.5141 23.5002C13.5975 23.5186 13.6584 23.5665 13.6496 23.6065C13.6407 23.6466 13.7017 23.6944 13.785 23.7129C13.8684 23.7314 13.9294 23.7793 13.9205 23.8193C13.9116 23.8593 13.9726 23.9072 14.056 23.9257C14.1394 23.9442 14.2003 23.992 14.1914 24.032C14.1826 24.0721 14.2435 24.1199 14.3269 24.1384C14.4103 24.1569 14.4712 24.2048 14.4624 24.2448C14.4535 24.2848 14.5145 24.3327 14.5978 24.3512C14.6812 24.3697 14.7422 24.4175 14.7333 24.4575C14.7244 24.4976 14.8195 24.553 14.9446 24.5807C15.0696 24.6085 15.1647 24.6639 15.1558 24.7039C15.147 24.7439 15.2079 24.7918 15.2913 24.8103C15.3747 24.8288 15.4356 24.8766 15.4268 24.9167C15.4179 24.9567 15.513 25.0121 15.638 25.0398C15.7631 25.0676 15.8582 25.123 15.8493 25.163C15.8404 25.203 15.9014 25.2509 15.9848 25.2694C16.0681 25.2879 16.1291 25.3358 16.1202 25.3758C16.1114 25.4158 16.2064 25.4712 16.3315 25.499C16.4566 25.5267 16.5516 25.5821 16.5428 25.6221C16.5339 25.6622 16.629 25.7176 16.754 25.7453C16.8791 25.773 16.9742 25.8285 16.9653 25.8685C16.9564 25.9085 17.0515 25.9639 17.1766 25.9917C17.3016 26.0194 17.3967 26.0748 17.3878 26.1149C17.379 26.1549 17.474 26.2103 17.5991 26.238C17.7242 26.2658 17.8192 26.3212 17.8104 26.3612C17.8015 26.4012 17.9307 26.4642 18.0974 26.5012C18.2642 26.5382 18.3934 26.6012 18.3845 26.6412C18.3756 26.6812 18.5048 26.7442 18.6716 26.7812C18.8383 26.8181 18.9675 26.8811 18.9586 26.9212C18.9497 26.9612 19.113 27.0317 19.3215 27.0779C19.5299 27.1242 19.6932 27.1947 19.6844 27.2347C19.6751 27.2763 19.8956 27.3579 20.1988 27.4251C20.502 27.4923 20.7225 27.574 20.7133 27.6155C20.7039 27.658 20.9498 27.7443 21.3035 27.8227C21.6573 27.9012 21.9032 27.9875 21.8938 28.0299C21.8837 28.0755 22.3457 28.2065 23.1303 28.3804L24.3831 28.6581L24.7943 28.4077C25.0205 28.2701 25.2167 28.1074 25.2302 28.0463C25.2437 27.9853 25.2889 27.9428 25.3306 27.9521C25.3798 27.963 25.6161 27.0229 26.0033 25.2765C26.3905 23.5301 26.5736 22.5782 26.5244 22.5673C26.4827 22.558 26.4631 22.485 26.4809 22.4049C26.4986 22.3249 26.479 22.2519 26.4373 22.2426C26.3956 22.2334 26.3761 22.1603 26.3938 22.0803C26.414 21.9892 26.3755 21.9235 26.2912 21.9048C26.217 21.8884 26.1217 21.7985 26.0793 21.7052C26.0105 21.5535 25.9154 21.5161 25.1853 21.3543C24.6911 21.2447 24.3746 21.1444 24.3843 21.1004C24.394 21.0567 24.0973 20.9604 23.6425 20.8596C23.1877 20.7587 22.8909 20.6624 22.9006 20.6188C22.9095 20.5787 22.7803 20.5157 22.6136 20.4788C22.4468 20.4418 22.3176 20.3788 22.3265 20.3388C22.3354 20.2988 22.2062 20.2358 22.0394 20.1988C21.8727 20.1618 21.7435 20.0988 21.7524 20.0588C21.7612 20.0188 21.6321 19.9558 21.4653 19.9188C21.2985 19.8819 21.1694 19.8189 21.1782 19.7788C21.1871 19.7388 21.0579 19.6758 20.8912 19.6389C20.7244 19.6019 20.5952 19.5389 20.6041 19.4989C20.613 19.4589 20.5179 19.4034 20.3928 19.3757C20.2678 19.348 20.1582 19.358 20.1493 19.3981C20.1404 19.4381 20.0473 19.4518 19.9424 19.4285C19.795 19.3959 19.3127 19.6539 17.8236 20.562C16.0445 21.6471 15.8751 21.7333 15.629 21.6787C15.4824 21.6462 15.3697 21.5869 15.3786 21.5469C15.3875 21.5068 15.334 21.4606 15.2599 21.4442C15.1857 21.4277 15.0904 21.3379 15.048 21.2445C15.0056 21.1512 14.9103 21.0613 14.8361 21.0449C14.762 21.0284 14.7085 20.9822 14.7174 20.9422C14.7263 20.9022 14.6728 20.856 14.5987 20.8395C14.5245 20.8231 14.4292 20.7332 14.3868 20.6399C14.3444 20.5465 14.2566 20.4583 14.1917 20.4439C14.1267 20.4295 14.0389 20.3414 13.9965 20.248C13.9542 20.1546 13.8663 20.0664 13.8014 20.052C13.7364 20.0376 13.6486 19.9495 13.6063 19.8561C13.5639 19.7627 13.4822 19.6759 13.4248 19.6632C13.3674 19.6504 13.2465 19.5206 13.1563 19.3746C13.0661 19.2287 12.9529 19.1005 12.9048 19.0898C12.8567 19.0792 12.66 18.8294 12.4677 18.5349C12.2754 18.2403 12.0817 17.9912 12.0372 17.9814C11.9928 17.9715 11.6747 17.5407 11.3305 17.024C10.9864 16.5073 10.7125 16.0496 10.7219 16.0069C10.7314 15.9641 10.5772 15.691 10.3794 15.3999C10.1815 15.1087 10.028 14.8327 10.0382 14.7865C10.0484 14.7403 9.97483 14.588 9.87462 14.4482C9.77441 14.3083 9.70244 14.1487 9.71466 14.0936C9.72688 14.0384 9.67914 13.931 9.60855 13.8548C9.53796 13.7786 9.49152 13.6652 9.50535 13.6029C9.51917 13.5405 9.47273 13.4272 9.40215 13.351C9.33156 13.2748 9.28512 13.1614 9.29894 13.0991C9.31277 13.0367 9.26633 12.9233 9.19574 12.8471C9.12515 12.771 9.08031 12.6504 9.0961 12.5792C9.11188 12.508 9.09069 12.4421 9.049 12.4329C9.00731 12.4237 8.98613 12.3578 9.0019 12.2866C9.0177 12.2154 8.97285 12.0948 8.90227 12.0186C8.83168 11.9425 8.78684 11.8219 8.80263 11.7507C8.81841 11.6795 8.79722 11.6136 8.75553 11.6044C8.71384 11.5952 8.70527 11.4724 8.73647 11.3317C8.78883 11.0955 8.94219 10.9852 10.7232 9.90299C12.2138 8.99722 12.6625 8.68855 12.6938 8.54709C12.7162 8.44638 12.7685 8.37149 12.8102 8.38074C12.8519 8.38998 12.9078 8.2993 12.9344 8.17924C12.9611 8.05917 12.9487 7.95337 12.907 7.94413C12.8653 7.93489 12.8603 7.79634 12.8958 7.63626C12.9312 7.47617 12.9262 7.33763 12.8845 7.32838C12.8428 7.31914 12.8377 7.1806 12.8732 7.02051C12.9087 6.86042 12.9036 6.72188 12.8619 6.71264C12.8203 6.70339 12.8152 6.56485 12.8507 6.40476C12.8862 6.24467 12.8811 6.10613 12.8394 6.09689C12.7977 6.08765 12.7926 5.9491 12.8281 5.78901C12.8636 5.62893 12.8586 5.49038 12.8169 5.48114C12.7714 5.47106 12.8056 5.17327 12.9024 4.73666C12.9992 4.30006 13.0334 4.00227 12.9879 3.99218C12.942 3.98202 12.9808 3.66539 13.086 3.19102C13.2414 2.49012 13.2462 2.39187 13.1315 2.26812C13.061 2.19193 13.0161 2.07137 13.0319 2.00013C13.0499 1.91921 13.0038 1.85809 12.909 1.83707C12.8256 1.81858 12.7647 1.77071 12.7735 1.73069C12.7824 1.69067 12.7215 1.6428 12.6381 1.62431C12.5547 1.60583 12.4937 1.55796 12.5026 1.51794C12.5131 1.47071 11.5334 1.22671 9.71417 0.823411C7.89498 0.420108 6.90393 0.227193 6.89346 0.274419Z" fill="#CE1180"/>
</svg>
