<svg width="33" height="18" viewBox="0 0 33 18" fill="none" xmlns="http://www.w3.org/2000/svg">
<path fill-rule="evenodd" clip-rule="evenodd" d="M11.2765 0.504183C11.0982 0.781076 11.3286 1.27249 11.7883 1.59569C12.8311 2.32951 13.2893 5.9107 12.5698 7.70295C11.7888 9.6483 10.7038 8.81194 8.29171 4.40432L6.26909 0.708782L3.43113 0.565137C1.8707 0.485754 0.37952 0.627037 0.11822 0.878415C-0.537486 1.50922 1.59908 5.8625 4.92477 10.6713C8.77845 16.2432 12.2255 18.2632 17.2123 17.8719C18.9962 17.7316 19.1676 17.5965 19.3066 16.2186C19.3896 15.3936 19.7874 14.4552 20.1902 14.1334C20.7997 13.6467 21.3189 13.9236 23.2723 15.7745L25.6215 18L29.2596 17.8597C33.9291 17.6796 34.0877 17.0899 30.4777 13.3386C28.9776 11.7803 27.7507 10.2971 27.7507 10.0424C27.7507 9.78769 28.8465 8.15137 30.1859 6.4059C34.2046 1.16854 34.0533 0.491897 28.8627 0.479612L25.8003 0.472524L24.3494 3.23721C22.6632 6.45031 20.4888 9.0964 19.8474 8.71508C19.6018 8.56907 19.4009 6.88455 19.4009 4.97229C19.4009 -0.0392089 19.4338 9.31334e-06 15.2024 9.31334e-06C13.1808 9.31334e-06 11.4583 0.221146 11.2765 0.504183Z" fill="#CE1180"/>
</svg>
