<?xml version="1.0" standalone="no"?>
<!DOCTYPE svg PUBLIC "-//W3C//DTD SVG 20010904//EN"
 "http://www.w3.org/TR/2001/REC-SVG-20010904/DTD/svg10.dtd">
<svg version="1.0" xmlns="http://www.w3.org/2000/svg"
 width="700.000000pt" height="700.000000pt" viewBox="0 0 700.000000 700.000000"
 preserveAspectRatio="xMidYMid meet">
<metadata>
Created by potrace 1.14, written by Peter Selinger 2001-2017
</metadata>
<g transform="translate(0.000000,700.000000) scale(0.100000,-0.100000)"
fill="#000000" stroke="none">
<path d="M0 3500 l0 -3500 3500 0 3500 0 0 3500 0 3500 -3500 0 -3500 0 0
-3500z m1906 1515 c-6 -22 -3 -25 19 -25 32 0 32 -1 0 -238 -156 -1150 -225
-1667 -223 -1673 2 -4 156 427 342 959 186 532 343 975 348 985 8 16 41 17
469 17 l461 0 -6 -25 c-6 -22 -3 -25 18 -25 14 0 27 -4 30 -8 2 -4 -26 -89
-63 -188 -113 -297 -890 -2340 -937 -2464 -24 -63 -70 -185 -102 -270 l-59
-155 -739 0 -739 0 1 22 c0 19 -5 23 -29 23 -29 0 -29 0 -23 48 4 26 71 702
151 1502 79 800 147 1474 150 1498 l6 42 466 0 465 0 -6 -25z m2794 1 c0 -18
6 -25 23 -28 l22 -3 5 -498 5 -497 249 525 248 525 524 0 524 0 0 -25 c0 -18
5 -25 19 -25 11 0 22 -4 25 -9 3 -5 -26 -289 -64 -632 -210 -1874 -182 -1657
-268 -2071 l-77 -373 -500 0 -500 0 3 22 c3 20 -1 23 -27 23 -17 0 -31 1 -31
3 0 1 56 225 125 497 68 272 123 496 121 497 -1 2 -96 -223 -211 -500 -114
-276 -214 -512 -222 -524 l-13 -23 -395 0 -395 0 0 25 c0 21 -5 25 -29 25 -28
0 -28 1 -24 48 32 350 87 1060 82 1054 -4 -4 -80 -259 -170 -567 -89 -308
-167 -566 -172 -572 -7 -10 -124 -13 -522 -13 -281 0 -515 3 -518 6 -3 4 -2
15 4 25 9 17 6 19 -26 19 -19 0 -35 2 -35 5 0 3 261 692 580 1532 319 841 582
1534 585 1541 3 9 119 12 530 12 l525 0 0 -24z"/>
</g>
</svg>
