<svg width="30" height="30" viewBox="0 0 30 30" fill="none" xmlns="http://www.w3.org/2000/svg">
<path fill-rule="evenodd" clip-rule="evenodd" d="M8.56177 8.11996C8.56157 8.14225 8.53354 8.16024 8.49949 8.15994C8.46541 8.15964 8.35514 8.24025 8.25445 8.3391L8.07132 8.51875L8.06548 9.1884C8.06182 9.6078 8.07481 9.85813 8.10021 9.85836C8.12387 9.85856 8.13961 9.99376 8.13796 10.1829C8.13631 10.372 8.15205 10.5072 8.17571 10.5074C8.19888 10.5076 8.21523 10.6293 8.21381 10.7913C8.2124 10.9534 8.22875 11.0751 8.25192 11.0753C8.27423 11.0755 8.2917 11.1668 8.29072 11.2783C8.28975 11.3897 8.30722 11.481 8.32953 11.4812C8.35185 11.4814 8.36947 11.5545 8.3687 11.6436C8.36792 11.7328 8.38554 11.8059 8.40786 11.8061C8.43018 11.8063 8.4478 11.8794 8.44702 11.9685C8.44624 12.0576 8.46387 12.1307 8.48619 12.1309C8.5085 12.1311 8.52629 12.186 8.5257 12.2528C8.52512 12.3197 8.5429 12.3745 8.56522 12.3747C8.58754 12.3749 8.60532 12.4298 8.60474 12.4967C8.60415 12.5635 8.62193 12.6184 8.64425 12.6186C8.66657 12.6188 8.68435 12.6736 8.68377 12.7405C8.68318 12.8073 8.70097 12.8622 8.72328 12.8624C8.7456 12.8626 8.76338 12.9174 8.7628 12.9843C8.76222 13.0511 8.78 13.106 8.80232 13.1062C8.82464 13.1064 8.84258 13.143 8.84219 13.1876C8.8418 13.2322 8.85974 13.2688 8.88206 13.269C8.90438 13.2692 8.92216 13.324 8.92157 13.3909C8.92099 13.4577 8.93877 13.5126 8.96109 13.5128C8.98341 13.513 9.00135 13.5496 9.00096 13.5942C9.00057 13.6388 9.01851 13.6754 9.04083 13.6756C9.06315 13.6758 9.08093 13.7306 9.08035 13.7975C9.07976 13.8643 9.09755 13.9192 9.11986 13.9194C9.14218 13.9196 9.16012 13.9562 9.15973 14.0008C9.15935 14.0454 9.17729 14.082 9.1996 14.0822C9.22192 14.0824 9.23986 14.119 9.23947 14.1636C9.23909 14.2081 9.25703 14.2448 9.27934 14.245C9.30166 14.2452 9.3196 14.2818 9.31921 14.3264C9.31883 14.3709 9.33677 14.4075 9.35908 14.4077C9.3814 14.4079 9.39934 14.4446 9.39895 14.4891C9.39857 14.5337 9.41651 14.5703 9.43882 14.5705C9.46114 14.5707 9.47908 14.6073 9.4787 14.6519C9.47831 14.6965 9.49625 14.7331 9.51857 14.7333C9.54088 14.7335 9.55886 14.7661 9.55851 14.8057C9.55817 14.8454 9.59417 14.9044 9.63853 14.937C9.68288 14.9695 9.71889 15.0285 9.71854 15.0682C9.7182 15.1078 9.73618 15.1404 9.75849 15.1406C9.78081 15.1408 9.79879 15.1734 9.79844 15.213C9.7981 15.2527 9.8341 15.3117 9.87846 15.3443C9.92281 15.3768 9.95885 15.4318 9.95855 15.4665C9.95825 15.5013 9.99429 15.5563 10.0386 15.5888C10.083 15.6213 10.119 15.6763 10.1187 15.7111C10.1184 15.7458 10.1545 15.8008 10.1988 15.8333C10.2432 15.8658 10.2793 15.9176 10.279 15.9483C10.2787 15.979 10.3328 16.0557 10.3992 16.1187C10.4657 16.1817 10.5198 16.2552 10.5196 16.2819C10.5193 16.3086 10.5735 16.382 10.6399 16.445C10.7063 16.508 10.7604 16.5808 10.7602 16.6067C10.76 16.6327 10.8503 16.7435 10.961 16.853C11.0716 16.9625 11.162 17.0718 11.1617 17.0957C11.1612 17.1527 11.9918 17.9966 12.0488 17.9971C12.0728 17.9973 12.1806 18.0894 12.2883 18.2018C12.3961 18.3142 12.5054 18.4063 12.5314 18.4065C12.5574 18.4068 12.6293 18.4621 12.6913 18.5295C12.7532 18.5969 12.8258 18.6522 12.8525 18.6525C12.8793 18.6527 12.9518 18.708 13.0138 18.7754C13.0757 18.8428 13.1516 18.8982 13.1823 18.8985C13.2131 18.8987 13.2643 18.9356 13.2961 18.9805C13.3278 19.0253 13.3823 19.0623 13.4171 19.0626C13.4519 19.0629 13.5063 19.0998 13.5381 19.1447C13.5699 19.1895 13.6244 19.2265 13.6591 19.2268C13.6939 19.2271 13.7484 19.264 13.7802 19.3089C13.8119 19.3537 13.8704 19.3907 13.9101 19.3911C13.9498 19.3914 13.9822 19.4099 13.982 19.4322C13.9818 19.4545 14.0141 19.473 14.0538 19.4734C14.0935 19.4737 14.152 19.5107 14.1838 19.5555C14.2156 19.6004 14.2741 19.6374 14.3138 19.6377C14.3535 19.6381 14.3858 19.6566 14.3856 19.6789C14.3854 19.7012 14.4218 19.7197 14.4664 19.7201C14.5111 19.7205 14.5474 19.739 14.5472 19.7613C14.547 19.7836 14.5834 19.8022 14.628 19.8026C14.6727 19.8029 14.709 19.8215 14.7088 19.8438C14.7086 19.8661 14.745 19.8846 14.7896 19.885C14.8343 19.8854 14.8706 19.9039 14.8704 19.9262C14.8702 19.9485 14.9066 19.9671 14.9512 19.9675C14.9959 19.9678 15.0322 19.9864 15.032 20.0087C15.0318 20.031 15.0682 20.0495 15.1128 20.0499C15.1575 20.0503 15.1938 20.0689 15.1936 20.0911C15.1934 20.1134 15.2481 20.1321 15.315 20.1327C15.382 20.1333 15.4366 20.152 15.4364 20.1743C15.4362 20.1966 15.4726 20.2151 15.5172 20.2155C15.5618 20.2159 15.5982 20.2345 15.598 20.2568C15.5978 20.279 15.6524 20.2977 15.7194 20.2983C15.7863 20.2989 15.841 20.3176 15.8408 20.3399C15.8406 20.3622 15.8769 20.3807 15.9216 20.3811C15.9662 20.3815 16.0026 20.4001 16.0024 20.4224C16.0022 20.4447 16.0568 20.4634 16.1237 20.4639C16.1907 20.4645 16.2453 20.4832 16.2451 20.5055C16.2449 20.5278 16.2995 20.5465 16.3665 20.5471C16.4334 20.5477 16.4881 20.5664 16.4879 20.5887C16.4877 20.611 16.5423 20.6297 16.6093 20.6303C16.6762 20.6309 16.7308 20.6496 16.7306 20.6718C16.7304 20.6941 16.7851 20.7128 16.852 20.7134C16.919 20.714 16.9736 20.7327 16.9734 20.755C16.9732 20.7773 17.0461 20.7962 17.1353 20.7969C17.2246 20.7977 17.2975 20.8166 17.2973 20.8389C17.2971 20.8612 17.37 20.88 17.4593 20.8808C17.5485 20.8816 17.6214 20.9005 17.6212 20.9228C17.621 20.945 17.7122 20.9641 17.8237 20.965C17.9353 20.966 18.0265 20.985 18.0263 21.0073C18.0261 21.0305 18.1477 21.0489 18.31 21.0503C18.4723 21.0517 18.5939 21.0702 18.5936 21.0933C18.5934 21.1169 18.7285 21.135 18.9179 21.1367C19.1073 21.1383 19.2424 21.1564 19.2422 21.18C19.242 21.2054 19.4924 21.2227 19.9124 21.2264L20.583 21.2322L20.7661 21.0526C20.8668 20.9537 20.9495 20.8451 20.9498 20.811C20.9501 20.777 20.9686 20.7494 20.9909 20.7495C21.0172 20.7498 21.0361 20.2232 21.0446 19.2507C21.053 18.2783 21.0434 17.7514 21.0171 17.7512C20.9947 17.751 20.9768 17.7144 20.9772 17.6698C20.9776 17.6252 20.9596 17.5886 20.9373 17.5884C20.915 17.5882 20.8971 17.5516 20.8974 17.507C20.8979 17.4563 20.8711 17.4257 20.826 17.4254C20.7862 17.425 20.7278 17.388 20.696 17.3432C20.6443 17.2703 20.5916 17.2612 20.2008 17.2578C19.9363 17.2555 19.7635 17.238 19.7638 17.2135C19.764 17.1892 19.6018 17.1715 19.3583 17.1694C19.1149 17.1673 18.9527 17.1497 18.9529 17.1254C18.9531 17.1031 18.8802 17.0842 18.791 17.0834C18.7017 17.0826 18.6288 17.0638 18.629 17.0415C18.6292 17.0192 18.5563 17.0003 18.4671 16.9996C18.3778 16.9988 18.3049 16.9799 18.3051 16.9576C18.3053 16.9353 18.2324 16.9165 18.1431 16.9157C18.0539 16.9149 17.981 16.896 17.9812 16.8737C17.9814 16.8515 17.9085 16.8326 17.8192 16.8318C17.73 16.831 17.6571 16.8122 17.6573 16.7899C17.6575 16.7676 17.6028 16.7489 17.5359 16.7483C17.4689 16.7477 17.414 16.7655 17.4138 16.7878C17.4136 16.81 17.3675 16.8279 17.3113 16.8274C17.2324 16.8267 17.0138 17.0185 16.351 17.67C15.5591 18.4483 15.4819 18.5133 15.3501 18.5122C15.2717 18.5115 15.2076 18.4927 15.2078 18.4704C15.208 18.4481 15.1756 18.4296 15.136 18.4293C15.0962 18.4289 15.0377 18.3919 15.006 18.3471C14.9742 18.3022 14.9157 18.2652 14.876 18.2649C14.8363 18.2646 14.8039 18.246 14.8041 18.2238C14.8043 18.2015 14.772 18.183 14.7323 18.1826C14.6926 18.1823 14.6341 18.1453 14.6023 18.1004C14.5705 18.0556 14.5161 18.0186 14.4813 18.0183C14.4465 18.018 14.392 17.9811 14.3603 17.9362C14.3285 17.8914 14.274 17.8544 14.2392 17.8541C14.2045 17.8538 14.15 17.8169 14.1182 17.772C14.0864 17.7272 14.0352 17.6903 14.0045 17.69C13.9738 17.6897 13.8979 17.6344 13.8359 17.567C13.774 17.4996 13.7022 17.4442 13.6764 17.444C13.6507 17.4438 13.523 17.3333 13.3928 17.1984C13.2625 17.0635 13.1365 16.953 13.1126 16.9528C13.0888 16.9526 12.8795 16.7595 12.6474 16.5238C12.4154 16.288 12.2257 16.0756 12.2259 16.0518C12.2262 16.028 12.1177 15.9003 11.9849 15.7679C11.8522 15.6355 11.7437 15.5061 11.744 15.4804C11.7442 15.4546 11.69 15.382 11.6236 15.319C11.5572 15.256 11.5031 15.1792 11.5034 15.1485C11.5036 15.1178 11.4676 15.0661 11.4232 15.0336C11.3789 15.0011 11.3428 14.946 11.3431 14.9113C11.3434 14.8766 11.3074 14.8216 11.263 14.789C11.2187 14.7565 11.1826 14.7015 11.1829 14.6668C11.1832 14.6321 11.1472 14.577 11.1028 14.5445C11.0585 14.512 11.0225 14.453 11.0228 14.4133C11.0232 14.3737 11.0052 14.3411 10.9829 14.3409C10.9606 14.3407 10.9426 14.3081 10.9429 14.2684C10.9433 14.2288 10.9073 14.1697 10.8629 14.1372C10.8186 14.1047 10.7826 14.0457 10.7829 14.006C10.7833 13.9664 10.7653 13.9338 10.743 13.9336C10.7206 13.9334 10.7029 13.8691 10.7036 13.7907C10.7048 13.6592 10.7712 13.5832 11.5644 12.8061C12.2283 12.1558 12.4241 11.9408 12.4248 11.8621C12.4253 11.806 12.444 11.7602 12.4663 11.7604C12.4886 11.7606 12.5074 11.7061 12.5079 11.6392C12.5085 11.5724 12.4907 11.5175 12.4684 11.5173C12.4461 11.5171 12.4285 11.444 12.4293 11.3549C12.43 11.2658 12.4124 11.1927 12.3901 11.1925C12.3678 11.1923 12.3502 11.1192 12.3509 11.0301C12.3517 10.9409 12.3341 10.8678 12.3118 10.8676C12.2894 10.8674 12.2718 10.7943 12.2726 10.7052C12.2734 10.6161 12.2558 10.543 12.2334 10.5428C12.2111 10.5426 12.1935 10.4695 12.1943 10.3803C12.1951 10.2912 12.1774 10.2181 12.1551 10.2179C12.1308 10.2177 12.116 10.0555 12.1181 9.81238C12.1202 9.56927 12.1054 9.40705 12.081 9.40684C12.0565 9.40662 12.042 9.23388 12.0443 8.96974C12.0477 8.57947 12.0395 8.52668 11.9674 8.47386C11.9231 8.44133 11.8871 8.3823 11.8874 8.34264C11.8878 8.29758 11.8577 8.27029 11.8069 8.26985C11.7623 8.26946 11.7259 8.25091 11.7261 8.22862C11.7263 8.20634 11.6899 8.18778 11.6453 8.18739C11.6007 8.187 11.5643 8.16845 11.5645 8.14617C11.5647 8.11987 11.0373 8.10105 10.0635 8.09255C9.08963 8.08405 8.562 8.09367 8.56177 8.11996Z" fill="#CE1180"/>
<path d="M2.57967 21.0071C1.03721 18.088 0.606193 14.7084 1.36663 11.4956C2.12706 8.28276 4.0273 5.45494 6.71464 3.53696C9.40199 1.61898 12.6939 0.741119 15.9795 1.0663C19.265 1.39149 22.321 2.89764 24.5802 5.3052C26.8394 7.71276 28.1485 10.8582 28.2643 14.1578C28.3802 17.4573 27.295 20.6869 25.2103 23.247C23.1255 25.8071 20.1827 27.5239 16.9281 28.0788C13.6735 28.6336 10.328 27.9889 7.51278 26.2641" stroke="#CE1180" stroke-width="2" stroke-linecap="round"/>
<path d="M2.52363 21.1973L1.36664 26.5966C1.20664 27.3432 1.9087 27.9864 2.63853 27.7619L7.57065 26.2443" stroke="#CE1180" stroke-width="2" stroke-linecap="round"/>
</svg>
